<svg xmlns="http://www.w3.org/2000/svg" width="36" height="37" viewBox="0 0 36 37" fill="none">
<path d="M35.4448 7.65836C35.3216 7.51093 35.1676 7.39234 34.9935 7.31098C34.8194 7.22962 34.6296 7.18747 34.4375 7.1875H7.97094L7.16867 2.78078C7.05879 2.17594 6.74011 1.62885 6.2682 1.23489C5.79628 0.840928 5.20107 0.625089 4.58633 0.625H1.625C1.2769 0.625 0.943064 0.763281 0.696922 1.00942C0.450781 1.25556 0.3125 1.5894 0.3125 1.9375C0.3125 2.2856 0.450781 2.61944 0.696922 2.86558C0.943064 3.11172 1.2769 3.25 1.625 3.25H4.57812L8.77156 26.2663C8.89509 26.9489 9.19675 27.5868 9.64602 28.1153C9.02594 28.6945 8.57838 29.4341 8.35297 30.2521C8.12756 31.0701 8.13311 31.9345 8.369 32.7496C8.60489 33.5646 9.06191 34.2984 9.68937 34.8695C10.3168 35.4407 11.0902 35.8269 11.9238 35.9854C12.7574 36.1438 13.6185 36.0683 14.4118 35.7672C15.2051 35.4661 15.8994 34.9512 16.4179 34.2796C16.9364 33.6079 17.2588 32.8058 17.3492 31.9622C17.4397 31.1185 17.2947 30.2663 16.9304 29.5H24.3821C24.0885 30.1147 23.9365 30.7875 23.9375 31.4688C23.9375 32.3773 24.2069 33.2655 24.7117 34.0209C25.2165 34.7763 25.9339 35.3651 26.7733 35.7128C27.6127 36.0605 28.5363 36.1515 29.4274 35.9742C30.3185 35.797 31.1371 35.3595 31.7795 34.717C32.422 34.0746 32.8595 33.256 33.0367 32.3649C33.214 31.4738 33.123 30.5502 32.7753 29.7108C32.4276 28.8714 31.8388 28.154 31.0834 27.6492C30.328 27.1444 29.4398 26.875 28.5312 26.875H12.6451C12.3377 26.875 12.0401 26.767 11.8041 26.5701C11.5682 26.3731 11.4088 26.0995 11.3539 25.7971L10.8338 22.9375H29.8651C30.7872 22.9374 31.68 22.6136 32.3879 22.0227C33.0957 21.4317 33.5738 20.6111 33.7386 19.7038L35.7336 8.73461C35.7674 8.54502 35.759 8.35032 35.7091 8.16432C35.6592 7.97832 35.569 7.80558 35.4448 7.65836ZM14.75 31.4688C14.75 31.8581 14.6345 32.2388 14.4182 32.5625C14.2019 32.8863 13.8944 33.1386 13.5347 33.2876C13.1749 33.4366 12.7791 33.4756 12.3972 33.3997C12.0153 33.3237 11.6645 33.1362 11.3891 32.8609C11.1138 32.5855 10.9263 32.2347 10.8503 31.8528C10.7744 31.4709 10.8134 31.0751 10.9624 30.7153C11.1114 30.3556 11.3637 30.0481 11.6875 29.8318C12.0112 29.6155 12.3919 29.5 12.7812 29.5C13.3034 29.5 13.8042 29.7074 14.1734 30.0766C14.5426 30.4458 14.75 30.9466 14.75 31.4688ZM30.5 31.4688C30.5 31.8581 30.3845 32.2388 30.1682 32.5625C29.9519 32.8863 29.6444 33.1386 29.2847 33.2876C28.9249 33.4366 28.5291 33.4756 28.1472 33.3997C27.7653 33.3237 27.4145 33.1362 27.1391 32.8609C26.8638 32.5855 26.6763 32.2347 26.6003 31.8528C26.5244 31.4709 26.5634 31.0751 26.7124 30.7153C26.8614 30.3556 27.1137 30.0481 27.4375 29.8318C27.7612 29.6155 28.1419 29.5 28.5312 29.5C29.0534 29.5 29.5542 29.7074 29.9234 30.0766C30.2926 30.4458 30.5 30.9466 30.5 31.4688ZM31.1562 19.2346C31.1012 19.5379 30.9411 19.8121 30.7041 20.0091C30.4671 20.2062 30.1684 20.3136 29.8602 20.3125H10.3564L8.44836 9.8125H32.8641L31.1562 19.2346Z" fill="#5F24DD"/>
</svg>