<svg width="42" height="42" viewBox="0 0 42 42" fill="none" xmlns="http://www.w3.org/2000/svg">
<path opacity="0.2" d="M21 9.1875C7.875 9.1875 2.625 21 2.625 21C2.625 21 7.875 32.8125 21 32.8125C34.125 32.8125 39.375 21 39.375 21C39.375 21 34.125 9.1875 21 9.1875ZM21 27.5625C19.7021 27.5625 18.4333 27.1776 17.3541 26.4565C16.2749 25.7354 15.4337 24.7105 14.937 23.5114C14.4403 22.3122 14.3104 20.9927 14.5636 19.7197C14.8168 18.4467 15.4418 17.2774 16.3596 16.3596C17.2774 15.4418 18.4467 14.8168 19.7197 14.5636C20.9927 14.3104 22.3122 14.4403 23.5114 14.937C24.7105 15.4337 25.7354 16.2749 26.4565 17.3541C27.1776 18.4333 27.5625 19.7021 27.5625 21C27.5625 22.7405 26.8711 24.4097 25.6404 25.6404C24.4097 26.8711 22.7405 27.5625 21 27.5625Z" fill="white"/>
<path d="M40.5743 20.4684C40.5169 20.3388 39.1273 17.2561 36.038 14.1668C31.9216 10.0505 26.7225 7.875 21 7.875C15.2775 7.875 10.0783 10.0505 5.96202 14.1668C2.87272 17.2561 1.47655 20.3438 1.42569 20.4684C1.35106 20.6363 1.3125 20.8179 1.3125 21.0016C1.3125 21.1853 1.35106 21.367 1.42569 21.5348C1.48311 21.6645 2.87272 24.7455 5.96202 27.8348C10.0783 31.9495 15.2775 34.125 21 34.125C26.7225 34.125 31.9216 31.9495 36.038 27.8348C39.1273 24.7455 40.5169 21.6645 40.5743 21.5348C40.6489 21.367 40.6875 21.1853 40.6875 21.0016C40.6875 20.8179 40.6489 20.6363 40.5743 20.4684ZM21 31.5C15.9501 31.5 11.5385 29.6641 7.88647 26.0449C6.388 24.5547 5.11314 22.8555 4.10155 21C5.11286 19.1444 6.38775 17.4451 7.88647 15.9551C11.5385 12.3359 15.9501 10.5 21 10.5C26.0498 10.5 30.4615 12.3359 34.1135 15.9551C35.6149 17.4447 36.8925 19.144 37.9066 21C36.7237 23.2083 31.5705 31.5 21 31.5ZM21 13.125C19.4425 13.125 17.9199 13.5869 16.6249 14.4522C15.3298 15.3175 14.3205 16.5474 13.7244 17.9864C13.1284 19.4253 12.9724 21.0087 13.2763 22.5363C13.5802 24.0639 14.3302 25.4671 15.4315 26.5685C16.5329 27.6698 17.936 28.4198 19.4636 28.7237C20.9912 29.0275 22.5746 28.8716 24.0136 28.2756C25.4526 27.6795 26.6825 26.6702 27.5478 25.3751C28.4131 24.0801 28.875 22.5575 28.875 21C28.8728 18.9121 28.0424 16.9103 26.5661 15.4339C25.0897 13.9576 23.0879 13.1272 21 13.125ZM21 26.25C19.9616 26.25 18.9466 25.9421 18.0832 25.3652C17.2199 24.7883 16.547 23.9684 16.1496 23.0091C15.7523 22.0498 15.6483 20.9942 15.8509 19.9758C16.0534 18.9574 16.5534 18.0219 17.2877 17.2877C18.0219 16.5535 18.9574 16.0534 19.9758 15.8509C20.9942 15.6483 22.0498 15.7523 23.0091 16.1496C23.9684 16.547 24.7883 17.2199 25.3652 18.0833C25.9421 18.9466 26.25 19.9616 26.25 21C26.25 22.3924 25.6969 23.7277 24.7123 24.7123C23.7277 25.6969 22.3924 26.25 21 26.25Z" fill="white"/>
</svg>
