<svg xmlns="http://www.w3.org/2000/svg" width="1370" height="9" viewBox="0 0 1370 9" fill="none">
<path d="M-2 7.5L-4.06802 5.43198C-4.66476 4.83524 -5 4.02589 -5 3.18198C-5 1.42462 -3.57535 0 -1.81799 0H1371.82C1373.58 0 1375 1.42462 1375 3.18198C1375 4.02589 1374.66 4.83524 1374.07 5.43198L1372 7.5C1370.34 9.15685 1367.66 9.15685 1366 7.5C1364.34 5.84315 1361.66 5.84315 1360 7.5C1358.34 9.15685 1355.66 9.15685 1354 7.5C1352.34 5.84315 1349.66 5.84315 1348 7.5C1346.34 9.15685 1343.66 9.15685 1342 7.5C1340.34 5.84315 1337.66 5.84315 1336 7.5C1334.34 9.15685 1331.66 9.15685 1330 7.5C1328.34 5.84315 1325.66 5.84315 1324 7.5C1322.34 9.15685 1319.66 9.15685 1318 7.5C1316.34 5.84315 1313.66 5.84315 1312 7.5C1310.34 9.15685 1307.66 9.15685 1306 7.5C1304.34 5.84315 1301.66 5.84315 1300 7.5C1298.34 9.15685 1295.66 9.15685 1294 7.5C1292.34 5.84315 1289.66 5.84315 1288 7.5C1286.34 9.15685 1283.66 9.15685 1282 7.5C1280.34 5.84315 1277.66 5.84315 1276 7.5C1274.34 9.15685 1271.66 9.15685 1270 7.5C1268.34 5.84315 1265.66 5.84315 1264 7.5C1262.34 9.15685 1259.66 9.15685 1258 7.5C1256.34 5.84315 1253.66 5.84315 1252 7.5C1250.34 9.15685 1247.66 9.15685 1246 7.5C1244.34 5.84315 1241.66 5.84315 1240 7.5C1238.34 9.15685 1235.66 9.15685 1234 7.5C1232.34 5.84315 1229.66 5.84315 1228 7.5C1226.34 9.15685 1223.66 9.15685 1222 7.5C1220.34 5.84315 1217.66 5.84315 1216 7.5C1214.34 9.15685 1211.66 9.15685 1210 7.5C1208.34 5.84315 1205.66 5.84315 1204 7.5C1202.34 9.15685 1199.66 9.15685 1198 7.5C1196.34 5.84315 1193.66 5.84315 1192 7.5C1190.34 9.15685 1187.66 9.15685 1186 7.5C1184.34 5.84315 1181.66 5.84315 1180 7.5C1178.34 9.15685 1175.66 9.15685 1174 7.5C1172.34 5.84315 1169.66 5.84315 1168 7.5C1166.34 9.15685 1163.66 9.15685 1162 7.5C1160.34 5.84315 1157.66 5.84315 1156 7.5C1154.34 9.15685 1151.66 9.15685 1150 7.5C1148.34 5.84315 1145.66 5.84315 1144 7.5C1142.34 9.15685 1139.66 9.15685 1138 7.5C1136.34 5.84315 1133.66 5.84315 1132 7.5C1130.34 9.15685 1127.66 9.15685 1126 7.5C1124.34 5.84315 1121.66 5.84315 1120 7.5C1118.34 9.15685 1115.66 9.15685 1114 7.5C1112.34 5.84315 1109.66 5.84315 1108 7.5C1106.34 9.15685 1103.66 9.15685 1102 7.5C1100.34 5.84315 1097.66 5.84315 1096 7.5C1094.34 9.15685 1091.66 9.15685 1090 7.5C1088.34 5.84315 1085.66 5.84315 1084 7.5C1082.34 9.15685 1079.66 9.15685 1078 7.5C1076.34 5.84315 1073.66 5.84315 1072 7.5C1070.34 9.15685 1067.66 9.15685 1066 7.5C1064.34 5.84315 1061.66 5.84315 1060 7.5C1058.34 9.15685 1055.66 9.15685 1054 7.5C1052.34 5.84315 1049.66 5.84315 1048 7.5C1046.34 9.15685 1043.66 9.15685 1042 7.5C1040.34 5.84315 1037.66 5.84315 1036 7.5C1034.34 9.15685 1031.66 9.15685 1030 7.5C1028.34 5.84315 1025.66 5.84315 1024 7.5C1022.34 9.15685 1019.66 9.15685 1018 7.5C1016.34 5.84315 1013.66 5.84315 1012 7.5C1010.34 9.15685 1007.66 9.15685 1006 7.5C1004.34 5.84315 1001.66 5.84315 1000 7.5C998.343 9.15685 995.657 9.15685 994 7.5C992.343 5.84315 989.657 5.84315 988 7.5C986.343 9.15685 983.657 9.15685 982 7.5C980.343 5.84315 977.657 5.84315 976 7.5C974.343 9.15685 971.657 9.15685 970 7.5C968.343 5.84315 965.657 5.84315 964 7.5C962.343 9.15685 959.657 9.15685 958 7.5C956.343 5.84315 953.657 5.84315 952 7.5C950.343 9.15685 947.657 9.15685 946 7.5C944.343 5.84315 941.657 5.84315 940 7.5C938.343 9.15685 935.657 9.15685 934 7.5C932.343 5.84315 929.657 5.84315 928 7.5C926.343 9.15685 923.657 9.15685 922 7.5C920.343 5.84315 917.657 5.84315 916 7.5C914.343 9.15685 911.657 9.15685 910 7.5C908.343 5.84315 905.657 5.84315 904 7.5C902.343 9.15685 899.657 9.15685 898 7.5C896.343 5.84315 893.657 5.84315 892 7.5C890.343 9.15685 887.657 9.15685 886 7.5C884.343 5.84315 881.657 5.84315 880 7.5C878.343 9.15685 875.657 9.15685 874 7.5C872.343 5.84315 869.657 5.84315 868 7.5C866.343 9.15685 863.657 9.15685 862 7.5C860.343 5.84315 857.657 5.84315 856 7.5C854.343 9.15685 851.657 9.15685 850 7.5C848.343 5.84315 845.657 5.84315 844 7.5C842.343 9.15685 839.657 9.15685 838 7.5C836.343 5.84315 833.657 5.84315 832 7.5C830.343 9.15685 827.657 9.15685 826 7.5C824.343 5.84315 821.657 5.84315 820 7.5C818.343 9.15685 815.657 9.15685 814 7.5C812.343 5.84315 809.657 5.84315 808 7.5C806.343 9.15685 803.657 9.15685 802 7.5C800.343 5.84315 797.657 5.84315 796 7.5C794.343 9.15685 791.657 9.15685 790 7.5C788.343 5.84315 785.657 5.84315 784 7.5C782.343 9.15685 779.657 9.15685 778 7.5C776.343 5.84315 773.657 5.84315 772 7.5C770.343 9.15685 767.657 9.15685 766 7.5C764.343 5.84315 761.657 5.84315 760 7.5C758.343 9.15685 755.657 9.15685 754 7.5C752.343 5.84315 749.657 5.84315 748 7.5C746.343 9.15685 743.657 9.15685 742 7.5C740.343 5.84315 737.657 5.84315 736 7.5C734.343 9.15685 731.657 9.15685 730 7.5C728.343 5.84315 725.657 5.84315 724 7.5C722.343 9.15685 719.657 9.15685 718 7.5C716.343 5.84315 713.657 5.84315 712 7.5C710.343 9.15685 707.657 9.15685 706 7.5C704.343 5.84315 701.657 5.84315 700 7.5C698.343 9.15685 695.657 9.15685 694 7.5C692.343 5.84315 689.657 5.84315 688 7.5C686.343 9.15685 683.657 9.15685 682 7.5C680.343 5.84315 677.657 5.84315 676 7.5C674.343 9.15685 671.657 9.15685 670 7.5C668.343 5.84315 665.657 5.84315 664 7.5C662.343 9.15685 659.657 9.15685 658 7.5C656.343 5.84315 653.657 5.84315 652 7.5C650.343 9.15685 647.657 9.15685 646 7.5C644.343 5.84315 641.657 5.84315 640 7.5C638.343 9.15685 635.657 9.15685 634 7.5C632.343 5.84315 629.657 5.84315 628 7.5C626.343 9.15685 623.657 9.15685 622 7.5C620.343 5.84315 617.657 5.84315 616 7.5C614.343 9.15685 611.657 9.15685 610 7.5C608.343 5.84315 605.657 5.84315 604 7.5C602.343 9.15685 599.657 9.15685 598 7.5C596.343 5.84315 593.657 5.84315 592 7.5C590.343 9.15685 587.657 9.15685 586 7.5C584.343 5.84315 581.657 5.84315 580 7.5C578.343 9.15685 575.657 9.15685 574 7.5C572.343 5.84315 569.657 5.84315 568 7.5C566.343 9.15685 563.657 9.15685 562 7.5C560.343 5.84315 557.657 5.84315 556 7.5C554.343 9.15685 551.657 9.15685 550 7.5C548.343 5.84315 545.657 5.84315 544 7.5C542.343 9.15685 539.657 9.15685 538 7.5C536.343 5.84315 533.657 5.84315 532 7.5C530.343 9.15685 527.657 9.15685 526 7.5C524.343 5.84315 521.657 5.84315 520 7.5C518.343 9.15685 515.657 9.15685 514 7.5C512.343 5.84315 509.657 5.84315 508 7.5C506.343 9.15685 503.657 9.15685 502 7.5C500.343 5.84315 497.657 5.84315 496 7.5C494.343 9.15685 491.657 9.15685 490 7.5C488.343 5.84315 485.657 5.84315 484 7.5C482.343 9.15685 479.657 9.15685 478 7.5C476.343 5.84315 473.657 5.84315 472 7.5C470.343 9.15685 467.657 9.15685 466 7.5C464.343 5.84315 461.657 5.84315 460 7.5C458.343 9.15685 455.657 9.15685 454 7.5C452.343 5.84315 449.657 5.84315 448 7.5C446.343 9.15685 443.657 9.15685 442 7.5C440.343 5.84315 437.657 5.84315 436 7.5C434.343 9.15685 431.657 9.15685 430 7.5C428.343 5.84315 425.657 5.84315 424 7.5C422.343 9.15685 419.657 9.15685 418 7.5C416.343 5.84315 413.657 5.84315 412 7.5C410.343 9.15685 407.657 9.15685 406 7.5C404.343 5.84315 401.657 5.84315 400 7.5C398.343 9.15685 395.657 9.15685 394 7.5C392.343 5.84315 389.657 5.84315 388 7.5C386.343 9.15685 383.657 9.15685 382 7.5C380.343 5.84315 377.657 5.84315 376 7.5C374.343 9.15685 371.657 9.15685 370 7.5C368.343 5.84315 365.657 5.84315 364 7.5C362.343 9.15685 359.657 9.15685 358 7.5C356.343 5.84315 353.657 5.84315 352 7.5C350.343 9.15685 347.657 9.15685 346 7.5C344.343 5.84315 341.657 5.84315 340 7.5C338.343 9.15685 335.657 9.15685 334 7.5C332.343 5.84315 329.657 5.84315 328 7.5C326.343 9.15685 323.657 9.15685 322 7.5C320.343 5.84315 317.657 5.84315 316 7.5C314.343 9.15685 311.657 9.15685 310 7.5C308.343 5.84315 305.657 5.84315 304 7.5C302.343 9.15685 299.657 9.15685 298 7.5C296.343 5.84315 293.657 5.84315 292 7.5C290.343 9.15685 287.657 9.15685 286 7.5C284.343 5.84315 281.657 5.84315 280 7.5C278.343 9.15685 275.657 9.15685 274 7.5C272.343 5.84315 269.657 5.84315 268 7.5C266.343 9.15685 263.657 9.15685 262 7.5C260.343 5.84315 257.657 5.84315 256 7.5C254.343 9.15685 251.657 9.15685 250 7.5C248.343 5.84315 245.657 5.84315 244 7.5C242.343 9.15685 239.657 9.15685 238 7.5C236.343 5.84315 233.657 5.84315 232 7.5C230.343 9.15685 227.657 9.15685 226 7.5C224.343 5.84315 221.657 5.84315 220 7.5C218.343 9.15685 215.657 9.15685 214 7.5C212.343 5.84315 209.657 5.84315 208 7.5C206.343 9.15685 203.657 9.15685 202 7.5C200.343 5.84315 197.657 5.84315 196 7.5C194.343 9.15685 191.657 9.15685 190 7.5C188.343 5.84315 185.657 5.84315 184 7.5C182.343 9.15685 179.657 9.15685 178 7.5C176.343 5.84315 173.657 5.84315 172 7.5C170.343 9.15685 167.657 9.15685 166 7.5C164.343 5.84315 161.657 5.84315 160 7.5C158.343 9.15685 155.657 9.15685 154 7.5C152.343 5.84315 149.657 5.84315 148 7.5C146.343 9.15685 143.657 9.15685 142 7.5C140.343 5.84315 137.657 5.84315 136 7.5C134.343 9.15685 131.657 9.15685 130 7.5C128.343 5.84315 125.657 5.84315 124 7.5C122.343 9.15685 119.657 9.15685 118 7.5C116.343 5.84315 113.657 5.84315 112 7.5C110.343 9.15685 107.657 9.15685 106 7.5C104.343 5.84315 101.657 5.84315 100 7.5C98.3431 9.15685 95.6569 9.15685 94 7.5C92.3431 5.84315 89.6569 5.84315 88 7.5C86.3431 9.15685 83.6569 9.15685 82 7.5C80.3431 5.84315 77.6569 5.84315 76 7.5C74.3431 9.15685 71.6569 9.15685 70 7.5C68.3431 5.84315 65.6569 5.84315 64 7.5C62.3431 9.15685 59.6569 9.15685 58 7.5C56.3431 5.84315 53.6569 5.84315 52 7.5C50.3431 9.15685 47.6569 9.15685 46 7.5C44.3431 5.84315 41.6569 5.84315 40 7.5C38.3431 9.15685 35.6569 9.15685 34 7.5C32.3431 5.84315 29.6569 5.84315 28 7.5C26.3431 9.15685 23.6569 9.15685 22 7.5C20.3431 5.84315 17.6569 5.84315 16 7.5C14.3431 9.15685 11.6569 9.15685 10 7.5C8.34315 5.84315 5.65685 5.84315 4 7.5C2.34315 9.15685 -0.343147 9.15685 -2 7.5Z" fill="white"/>
</svg>