<svg xmlns="http://www.w3.org/2000/svg" width="1370" height="10" viewBox="0 0 1370 10" fill="none">
<path d="M1372 2L1374.07 4.06802C1374.66 4.66476 1375 5.47411 1375 6.31802C1375 8.07538 1373.58 9.5 1371.82 9.5H-1.81799C-3.57544 9.5 -5 8.07538 -5 6.31802C-5 5.47411 -4.66479 4.66476 -4.06799 4.06802L-2 2C-0.34314 0.343145 2.34314 0.343146 4 2C5.65686 3.65685 8.34314 3.65685 10 2C11.6569 0.343146 14.3431 0.343146 16 2C17.6569 3.65685 20.3431 3.65685 22 2C23.6569 0.343146 26.3431 0.343146 28 2C29.6569 3.65685 32.3431 3.65685 34 2C35.6569 0.343146 38.3431 0.343146 40 2C41.6569 3.65685 44.3431 3.65685 46 2C47.6569 0.343146 50.3431 0.343146 52 2C53.6569 3.65685 56.3431 3.65685 58 2C59.6569 0.343146 62.3431 0.343146 64 2C65.6569 3.65685 68.3431 3.65685 70 2C71.6569 0.343146 74.3431 0.343146 76 2C77.6569 3.65685 80.3431 3.65685 82 2C83.6569 0.343146 86.3431 0.343146 88 2C89.6569 3.65685 92.3431 3.65685 94 2C95.6569 0.343146 98.3431 0.343146 100 2C101.657 3.65685 104.343 3.65685 106 2C107.657 0.343146 110.343 0.343146 112 2C113.657 3.65685 116.343 3.65685 118 2C119.657 0.343146 122.343 0.343146 124 2C125.657 3.65685 128.343 3.65685 130 2C131.657 0.343146 134.343 0.343146 136 2C137.657 3.65685 140.343 3.65685 142 2C143.657 0.343146 146.343 0.343146 148 2C149.657 3.65685 152.343 3.65685 154 2C155.657 0.343146 158.343 0.343146 160 2C161.657 3.65685 164.343 3.65685 166 2C167.657 0.343146 170.343 0.343146 172 2C173.657 3.65685 176.343 3.65685 178 2C179.657 0.343146 182.343 0.343146 184 2C185.657 3.65685 188.343 3.65685 190 2C191.657 0.343146 194.343 0.343146 196 2C197.657 3.65685 200.343 3.65685 202 2C203.657 0.343146 206.343 0.343146 208 2C209.657 3.65685 212.343 3.65685 214 2C215.657 0.343146 218.343 0.343146 220 2C221.657 3.65685 224.343 3.65685 226 2C227.657 0.343146 230.343 0.343146 232 2C233.657 3.65685 236.343 3.65685 238 2C239.657 0.343146 242.343 0.343146 244 2C245.657 3.65685 248.343 3.65685 250 2C251.657 0.343146 254.343 0.343146 256 2C257.657 3.65685 260.343 3.65685 262 2C263.657 0.343146 266.343 0.343146 268 2C269.657 3.65685 272.343 3.65685 274 2C275.657 0.343146 278.343 0.343146 280 2C281.657 3.65685 284.343 3.65685 286 2C287.657 0.343146 290.343 0.343146 292 2C293.657 3.65685 296.343 3.65685 298 2C299.657 0.343146 302.343 0.343146 304 2C305.657 3.65685 308.343 3.65685 310 2C311.657 0.343146 314.343 0.343146 316 2C317.657 3.65685 320.343 3.65685 322 2C323.657 0.343146 326.343 0.343146 328 2C329.657 3.65685 332.343 3.65685 334 2C335.657 0.343146 338.343 0.343146 340 2C341.657 3.65685 344.343 3.65685 346 2C347.657 0.343146 350.343 0.343146 352 2C353.657 3.65685 356.343 3.65685 358 2C359.657 0.343146 362.343 0.343146 364 2C365.657 3.65685 368.343 3.65685 370 2C371.657 0.343146 374.343 0.343146 376 2C377.657 3.65685 380.343 3.65685 382 2C383.657 0.343146 386.343 0.343146 388 2C389.657 3.65685 392.343 3.65685 394 2C395.657 0.343146 398.343 0.343146 400 2C401.657 3.65685 404.343 3.65685 406 2C407.657 0.343146 410.343 0.343146 412 2C413.657 3.65685 416.343 3.65685 418 2C419.657 0.343146 422.343 0.343146 424 2C425.657 3.65685 428.343 3.65685 430 2C431.657 0.343146 434.343 0.343146 436 2C437.657 3.65685 440.343 3.65685 442 2C443.657 0.343146 446.343 0.343146 448 2C449.657 3.65685 452.343 3.65685 454 2C455.657 0.343146 458.343 0.343146 460 2C461.657 3.65685 464.343 3.65685 466 2C467.657 0.343146 470.343 0.343146 472 2C473.657 3.65685 476.343 3.65685 478 2C479.657 0.343146 482.343 0.343146 484 2C485.657 3.65685 488.343 3.65685 490 2C491.657 0.343146 494.343 0.343146 496 2C497.657 3.65685 500.343 3.65685 502 2C503.657 0.343146 506.343 0.343146 508 2C509.657 3.65685 512.343 3.65685 514 2C515.657 0.343146 518.343 0.343146 520 2C521.657 3.65685 524.343 3.65685 526 2C527.657 0.343146 530.343 0.343146 532 2C533.657 3.65685 536.343 3.65685 538 2C539.657 0.343146 542.343 0.343146 544 2C545.657 3.65685 548.343 3.65685 550 2C551.657 0.343146 554.343 0.343146 556 2C557.657 3.65685 560.343 3.65685 562 2C563.657 0.343146 566.343 0.343146 568 2C569.657 3.65685 572.343 3.65685 574 2C575.657 0.343146 578.343 0.343146 580 2C581.657 3.65685 584.343 3.65685 586 2C587.657 0.343146 590.343 0.343146 592 2C593.657 3.65685 596.343 3.65685 598 2C599.657 0.343146 602.343 0.343146 604 2C605.657 3.65685 608.343 3.65685 610 2C611.657 0.343146 614.343 0.343146 616 2C617.657 3.65685 620.343 3.65685 622 2C623.657 0.343146 626.343 0.343146 628 2C629.657 3.65685 632.343 3.65685 634 2C635.657 0.343146 638.343 0.343146 640 2C641.657 3.65685 644.343 3.65685 646 2C647.657 0.343146 650.343 0.343146 652 2C653.657 3.65685 656.343 3.65685 658 2C659.657 0.343146 662.343 0.343146 664 2C665.657 3.65685 668.343 3.65685 670 2C671.657 0.343146 674.343 0.343146 676 2C677.657 3.65685 680.343 3.65685 682 2C683.657 0.343146 686.343 0.343146 688 2C689.657 3.65685 692.343 3.65685 694 2C695.657 0.343146 698.343 0.343146 700 2C701.657 3.65685 704.343 3.65685 706 2C707.657 0.343146 710.343 0.343146 712 2C713.657 3.65685 716.343 3.65685 718 2C719.657 0.343146 722.343 0.343146 724 2C725.657 3.65685 728.343 3.65685 730 2C731.657 0.343146 734.343 0.343146 736 2C737.657 3.65685 740.343 3.65685 742 2C743.657 0.343146 746.343 0.343146 748 2C749.657 3.65685 752.343 3.65685 754 2C755.657 0.343146 758.343 0.343146 760 2C761.657 3.65685 764.343 3.65685 766 2C767.657 0.343146 770.343 0.343146 772 2C773.657 3.65685 776.343 3.65685 778 2C779.657 0.343146 782.343 0.343146 784 2C785.657 3.65685 788.343 3.65685 790 2C791.657 0.343146 794.343 0.343146 796 2C797.657 3.65685 800.343 3.65685 802 2C803.657 0.343146 806.343 0.343146 808 2C809.657 3.65685 812.343 3.65685 814 2C815.657 0.343146 818.343 0.343146 820 2C821.657 3.65685 824.343 3.65685 826 2C827.657 0.343146 830.343 0.343146 832 2C833.657 3.65685 836.343 3.65685 838 2C839.657 0.343146 842.343 0.343146 844 2C845.657 3.65685 848.343 3.65685 850 2C851.657 0.343146 854.343 0.343146 856 2C857.657 3.65685 860.343 3.65685 862 2C863.657 0.343146 866.343 0.343146 868 2C869.657 3.65685 872.343 3.65685 874 2C875.657 0.343146 878.343 0.343146 880 2C881.657 3.65685 884.343 3.65685 886 2C887.657 0.343146 890.343 0.343146 892 2C893.657 3.65685 896.343 3.65685 898 2C899.657 0.343146 902.343 0.343146 904 2C905.657 3.65685 908.343 3.65685 910 2C911.657 0.343146 914.343 0.343146 916 2C917.657 3.65685 920.343 3.65685 922 2C923.657 0.343146 926.343 0.343146 928 2C929.657 3.65685 932.343 3.65685 934 2C935.657 0.343146 938.343 0.343146 940 2C941.657 3.65685 944.343 3.65685 946 2C947.657 0.343146 950.343 0.343146 952 2C953.657 3.65685 956.343 3.65685 958 2C959.657 0.343146 962.343 0.343146 964 2C965.657 3.65685 968.343 3.65685 970 2C971.657 0.343146 974.343 0.343146 976 2C977.657 3.65685 980.343 3.65685 982 2C983.657 0.343146 986.343 0.343146 988 2C989.657 3.65685 992.343 3.65685 994 2C995.657 0.343146 998.343 0.343146 1000 2C1001.66 3.65685 1004.34 3.65685 1006 2C1007.66 0.343146 1010.34 0.343146 1012 2C1013.66 3.65685 1016.34 3.65685 1018 2C1019.66 0.343146 1022.34 0.343146 1024 2C1025.66 3.65685 1028.34 3.65685 1030 2C1031.66 0.343146 1034.34 0.343146 1036 2C1037.66 3.65685 1040.34 3.65685 1042 2C1043.66 0.343146 1046.34 0.343146 1048 2C1049.66 3.65685 1052.34 3.65685 1054 2C1055.66 0.343146 1058.34 0.343146 1060 2C1061.66 3.65685 1064.34 3.65685 1066 2C1067.66 0.343146 1070.34 0.343146 1072 2C1073.66 3.65685 1076.34 3.65685 1078 2C1079.66 0.343146 1082.34 0.343146 1084 2C1085.66 3.65685 1088.34 3.65685 1090 2C1091.66 0.343146 1094.34 0.343146 1096 2C1097.66 3.65685 1100.34 3.65685 1102 2C1103.66 0.343146 1106.34 0.343146 1108 2C1109.66 3.65685 1112.34 3.65685 1114 2C1115.66 0.343146 1118.34 0.343146 1120 2C1121.66 3.65685 1124.34 3.65685 1126 2C1127.66 0.343146 1130.34 0.343146 1132 2C1133.66 3.65685 1136.34 3.65685 1138 2C1139.66 0.343146 1142.34 0.343146 1144 2C1145.66 3.65685 1148.34 3.65685 1150 2C1151.66 0.343146 1154.34 0.343146 1156 2C1157.66 3.65685 1160.34 3.65685 1162 2C1163.66 0.343146 1166.34 0.343146 1168 2C1169.66 3.65685 1172.34 3.65685 1174 2C1175.66 0.343146 1178.34 0.343146 1180 2C1181.66 3.65685 1184.34 3.65685 1186 2C1187.66 0.343146 1190.34 0.343146 1192 2C1193.66 3.65685 1196.34 3.65685 1198 2C1199.66 0.343146 1202.34 0.343146 1204 2C1205.66 3.65685 1208.34 3.65685 1210 2C1211.66 0.343146 1214.34 0.343146 1216 2C1217.66 3.65685 1220.34 3.65685 1222 2C1223.66 0.343146 1226.34 0.343146 1228 2C1229.66 3.65685 1232.34 3.65685 1234 2C1235.66 0.343146 1238.34 0.343146 1240 2C1241.66 3.65685 1244.34 3.65685 1246 2C1247.66 0.343146 1250.34 0.343146 1252 2C1253.66 3.65685 1256.34 3.65685 1258 2C1259.66 0.343146 1262.34 0.343146 1264 2C1265.66 3.65685 1268.34 3.65685 1270 2C1271.66 0.343146 1274.34 0.343146 1276 2C1277.66 3.65685 1280.34 3.65685 1282 2C1283.66 0.343146 1286.34 0.343146 1288 2C1289.66 3.65685 1292.34 3.65685 1294 2C1295.66 0.343146 1298.34 0.343146 1300 2C1301.66 3.65685 1304.34 3.65685 1306 2C1307.66 0.343146 1310.34 0.343146 1312 2C1313.66 3.65685 1316.34 3.65685 1318 2C1319.66 0.343146 1322.34 0.343146 1324 2C1325.66 3.65685 1328.34 3.65685 1330 2C1331.66 0.343146 1334.34 0.343146 1336 2C1337.66 3.65685 1340.34 3.65685 1342 2C1343.66 0.343146 1346.34 0.343146 1348 2C1349.66 3.65685 1352.34 3.65685 1354 2C1355.66 0.343146 1358.34 0.343146 1360 2C1361.66 3.65685 1364.34 3.65685 1366 2C1367.66 0.343146 1370.34 0.343147 1372 2Z" fill="white"/>
</svg>