<svg xmlns="http://www.w3.org/2000/svg" width="42" height="42" viewBox="0 0 42 42" fill="none">
<path opacity="0.2" d="M28.875 21C28.875 22.5575 28.4131 24.0801 27.5478 25.3751C26.6825 26.6702 25.4526 27.6795 24.0136 28.2756C22.5747 28.8716 20.9913 29.0275 19.4637 28.7237C17.9361 28.4198 16.5329 27.6698 15.4315 26.5685C14.3302 25.4671 13.5802 24.0639 13.2763 22.5363C12.9725 21.0087 13.1284 19.4253 13.7245 17.9864C14.3205 16.5474 15.3298 15.3175 16.6249 14.4522C17.9199 13.5869 19.4425 13.125 21 13.125C23.0886 13.125 25.0916 13.9547 26.5685 15.4315C28.0453 16.9084 28.875 18.9114 28.875 21Z" fill="#6A30F1"/>
<path d="M36.4005 13.6435C38.2218 17.4527 38.5676 21.8015 37.371 25.8507C36.1745 29.8998 33.5205 33.3622 29.9212 35.5696C26.322 37.777 22.0327 38.573 17.8811 37.8038C13.7295 37.0347 10.01 34.755 7.44038 31.4047C4.87078 28.0544 3.63328 23.871 3.96669 19.662C4.30011 15.453 6.18082 11.5166 9.24584 8.61267C12.3109 5.70873 16.3429 4.04306 20.5638 3.93714C24.7847 3.83122 28.8952 5.29255 32.1021 8.03911L35.8214 4.31817C36.0676 4.07189 36.4017 3.93353 36.7499 3.93353C37.0982 3.93353 37.4323 4.07189 37.6785 4.31817C37.9248 4.56445 38.0632 4.89847 38.0632 5.24676C38.0632 5.59505 37.9248 5.92908 37.6785 6.17536L21.9285 21.9254C21.6823 22.1716 21.3482 22.31 20.9999 22.31C20.6517 22.31 20.3176 22.1716 20.0714 21.9254C19.8251 21.6791 19.6867 21.3451 19.6867 20.9968C19.6867 20.6485 19.8251 20.3144 20.0714 20.0682L24.6192 15.5204C23.3867 14.7052 21.9151 14.3299 20.4427 14.4552C18.9704 14.5804 17.5834 15.199 16.5063 16.2106C15.4292 17.2222 14.7251 18.5678 14.5079 20.0294C14.2906 21.491 14.5731 22.9832 15.3095 24.2643C16.0458 25.5455 17.193 26.5406 18.5653 27.0886C19.9377 27.6366 21.4548 27.7054 22.871 27.2839C24.2873 26.8624 25.5199 25.9752 26.3692 24.766C27.2186 23.5568 27.6349 22.0964 27.551 20.6211C27.5413 20.4487 27.5656 20.2761 27.6226 20.1132C27.6796 19.9502 27.7682 19.8001 27.8832 19.6714C27.9982 19.5426 28.1375 19.4378 28.293 19.3629C28.4485 19.288 28.6173 19.2444 28.7896 19.2347C29.1377 19.2151 29.4794 19.3347 29.7393 19.5669C29.8681 19.682 29.9729 19.8212 30.0478 19.9767C30.1227 20.1323 30.1663 20.301 30.176 20.4734C30.2956 22.5616 29.6992 24.628 28.4853 26.3313C27.2714 28.0346 25.5126 29.2726 23.4997 29.8409C21.4868 30.4092 19.3403 30.2736 17.4148 29.4566C15.4894 28.6397 13.9004 27.1902 12.9104 25.3477C11.9204 23.5053 11.5887 21.3802 11.97 19.3237C12.3514 17.2672 13.4231 15.4024 15.008 14.0374C16.5928 12.6725 18.5959 11.8892 20.6862 11.817C22.7766 11.7448 24.829 12.3879 26.5042 13.6402L30.2367 9.90778C27.5014 7.63682 24.0236 6.4565 20.4711 6.59351C16.9186 6.73052 13.542 8.17521 10.9898 10.6501C8.43761 13.125 6.88976 16.4556 6.64356 20.0021C6.39736 23.5487 7.47017 27.0612 9.65594 29.865C11.8417 32.6688 14.9863 34.5662 18.4858 35.1927C21.9852 35.8193 25.5928 35.1308 28.6156 33.2596C31.6384 31.3883 33.8633 28.4663 34.8629 25.0546C35.8625 21.6429 35.5664 17.9822 34.0314 14.7755C33.8813 14.4614 33.8621 14.1004 33.9781 13.7721C34.0941 13.4438 34.3358 13.1751 34.6499 13.025C34.9641 12.8748 35.325 12.8557 35.6533 12.9717C35.9816 13.0877 36.2504 13.3293 36.4005 13.6435Z" fill="#6A30F1"/>
</svg>