<svg width="42" height="42" viewBox="0 0 42 42" fill="none" xmlns="http://www.w3.org/2000/svg">
<path opacity="0.2" d="M26.25 21C26.25 22.0384 25.9421 23.0534 25.3652 23.9167C24.7883 24.7801 23.9684 25.453 23.0091 25.8504C22.0498 26.2477 20.9942 26.3517 19.9758 26.1491C18.9574 25.9465 18.0219 25.4465 17.2877 24.7123C16.5535 23.9781 16.0535 23.0426 15.8509 22.0242C15.6483 21.0058 15.7523 19.9502 16.1496 18.9909C16.547 18.0316 17.2199 17.2117 18.0833 16.6348C18.9466 16.0579 19.9617 15.75 21 15.75C22.3924 15.75 23.7277 16.3031 24.7123 17.2877C25.6969 18.2723 26.25 19.6076 26.25 21Z" fill="white"/>
<path d="M38.0625 19.6875H36.6942C36.3793 15.9788 34.7629 12.5009 32.131 9.86901C29.4991 7.2371 26.0212 5.62074 22.3125 5.30578V3.9375C22.3125 3.5894 22.1742 3.25556 21.9281 3.00942C21.6819 2.76328 21.3481 2.625 21 2.625C20.6519 2.625 20.3181 2.76328 20.0719 3.00942C19.8258 3.25556 19.6875 3.5894 19.6875 3.9375V5.30578C15.9788 5.62074 12.5009 7.2371 9.86901 9.86901C7.2371 12.5009 5.62074 15.9788 5.30578 19.6875H3.9375C3.5894 19.6875 3.25556 19.8258 3.00942 20.0719C2.76328 20.3181 2.625 20.6519 2.625 21C2.625 21.3481 2.76328 21.6819 3.00942 21.9281C3.25556 22.1742 3.5894 22.3125 3.9375 22.3125H5.30578C5.62074 26.0212 7.2371 29.4991 9.86901 32.131C12.5009 34.7629 15.9788 36.3793 19.6875 36.6942V38.0625C19.6875 38.4106 19.8258 38.7444 20.0719 38.9906C20.3181 39.2367 20.6519 39.375 21 39.375C21.3481 39.375 21.6819 39.2367 21.9281 38.9906C22.1742 38.7444 22.3125 38.4106 22.3125 38.0625V36.6942C26.0212 36.3793 29.4991 34.7629 32.131 32.131C34.7629 29.4991 36.3793 26.0212 36.6942 22.3125H38.0625C38.4106 22.3125 38.7444 22.1742 38.9906 21.9281C39.2367 21.6819 39.375 21.3481 39.375 21C39.375 20.6519 39.2367 20.3181 38.9906 20.0719C38.7444 19.8258 38.4106 19.6875 38.0625 19.6875ZM22.3125 34.0594V32.8125C22.3125 32.4644 22.1742 32.1306 21.9281 31.8844C21.6819 31.6383 21.3481 31.5 21 31.5C20.6519 31.5 20.3181 31.6383 20.0719 31.8844C19.8258 32.1306 19.6875 32.4644 19.6875 32.8125V34.0594C16.6767 33.7522 13.8641 32.4158 11.7241 30.2759C9.58415 28.1359 8.24783 25.3233 7.94063 22.3125H9.1875C9.5356 22.3125 9.86944 22.1742 10.1156 21.9281C10.3617 21.6819 10.5 21.3481 10.5 21C10.5 20.6519 10.3617 20.3181 10.1156 20.0719C9.86944 19.8258 9.5356 19.6875 9.1875 19.6875H7.94063C8.24783 16.6767 9.58415 13.8641 11.7241 11.7241C13.8641 9.58415 16.6767 8.24783 19.6875 7.94063V9.1875C19.6875 9.5356 19.8258 9.86944 20.0719 10.1156C20.3181 10.3617 20.6519 10.5 21 10.5C21.3481 10.5 21.6819 10.3617 21.9281 10.1156C22.1742 9.86944 22.3125 9.5356 22.3125 9.1875V7.94063C25.3233 8.24783 28.1359 9.58415 30.2759 11.7241C32.4158 13.8641 33.7522 16.6767 34.0594 19.6875H32.8125C32.4644 19.6875 32.1306 19.8258 31.8844 20.0719C31.6383 20.3181 31.5 20.6519 31.5 21C31.5 21.3481 31.6383 21.6819 31.8844 21.9281C32.1306 22.1742 32.4644 22.3125 32.8125 22.3125H34.0594C33.7522 25.3233 32.4158 28.1359 30.2759 30.2759C28.1359 32.4158 25.3233 33.7522 22.3125 34.0594ZM21 14.4375C19.7021 14.4375 18.4333 14.8224 17.3541 15.5435C16.2749 16.2646 15.4337 17.2895 14.937 18.4886C14.4403 19.6878 14.3104 21.0073 14.5636 22.2803C14.8168 23.5533 15.4418 24.7226 16.3596 25.6404C17.2774 26.5582 18.4467 27.1832 19.7197 27.4364C20.9927 27.6896 22.3122 27.5597 23.5114 27.063C24.7105 26.5663 25.7354 25.7251 26.4565 24.6459C27.1776 23.5667 27.5625 22.2979 27.5625 21C27.5625 19.2595 26.8711 17.5903 25.6404 16.3596C24.4097 15.1289 22.7405 14.4375 21 14.4375ZM21 24.9375C20.2212 24.9375 19.46 24.7066 18.8124 24.2739C18.1649 23.8413 17.6602 23.2263 17.3622 22.5068C17.0642 21.7873 16.9862 20.9956 17.1382 20.2318C17.2901 19.468 17.6651 18.7664 18.2158 18.2158C18.7664 17.6651 19.468 17.2901 20.2318 17.1382C20.9956 16.9862 21.7873 17.0642 22.5068 17.3622C23.2263 17.6602 23.8413 18.1649 24.2739 18.8124C24.7066 19.46 24.9375 20.2212 24.9375 21C24.9375 22.0443 24.5227 23.0458 23.7842 23.7842C23.0458 24.5227 22.0443 24.9375 21 24.9375Z" fill="white"/>
</svg>
