<svg xmlns="http://www.w3.org/2000/svg" width="850" height="448" viewBox="0 0 850 448" fill="none">
<circle cx="425" cy="448" r="424.5" fill="url(#paint0_radial_300_304)" fill-opacity="0.1" stroke="#6A30F1" stroke-dasharray="2 2"/>
<circle cx="425" cy="448" r="349.5" fill="url(#paint1_radial_300_304)" fill-opacity="0.1" stroke="#6A30F1" stroke-dasharray="2 2"/>
<circle cx="425" cy="448" r="274.5" fill="url(#paint2_radial_300_304)" fill-opacity="0.1" stroke="#6A30F1" stroke-dasharray="2 2"/>
<path d="M624.977 443.979C624.987 444.651 624.994 445.322 624.997 445.995L624.497 445.998C624.499 446.333 624.5 446.669 624.5 447.005C624.5 447.341 624.499 447.677 624.497 448.013L624.997 448.015C624.994 448.688 624.987 449.36 624.977 450.031L624.477 450.024C624.467 450.693 624.454 451.362 624.437 452.03L624.937 452.042C624.92 452.712 624.9 453.38 624.877 454.048L624.377 454.031C624.354 454.697 624.328 455.362 624.298 456.027L624.797 456.049C624.767 456.718 624.734 457.387 624.697 458.054L624.198 458.026C624.161 458.696 624.121 459.365 624.077 460.033L624.576 460.066C624.533 460.736 624.486 461.405 624.435 462.072L623.937 462.035C623.887 462.701 623.833 463.367 623.776 464.031L624.275 464.074C624.218 464.74 624.158 465.405 624.094 466.069L623.596 466.021C623.533 466.686 623.466 467.35 623.396 468.013L623.893 468.065C623.823 468.734 623.749 469.402 623.671 470.068L623.175 470.011C623.098 470.676 623.017 471.339 622.933 472.002L623.429 472.065C623.346 472.73 623.258 473.393 623.168 474.056L622.672 473.988C622.582 474.649 622.489 475.309 622.392 475.967L622.887 476.04C622.789 476.702 622.689 477.364 622.585 478.024L622.091 477.946C621.987 478.609 621.879 479.27 621.769 479.93L622.262 480.012C622.151 480.674 622.036 481.334 621.919 481.994L621.427 481.906C621.309 482.564 621.189 483.22 621.065 483.876L621.556 483.969C621.432 484.626 621.305 485.282 621.175 485.937L620.684 485.839C620.554 486.494 620.42 487.148 620.283 487.801L620.772 487.904C620.634 488.561 620.493 489.217 620.348 489.872L619.86 489.764C619.716 490.418 619.569 491.07 619.418 491.72L619.905 491.833C619.754 492.486 619.6 493.137 619.443 493.787L618.957 493.669C618.8 494.318 618.639 494.965 618.476 495.611L618.961 495.733C618.796 496.383 618.629 497.031 618.458 497.678L617.975 497.55C617.804 498.198 617.63 498.844 617.453 499.489L617.935 499.621C617.757 500.268 617.576 500.913 617.392 501.557L616.912 501.42C616.728 502.062 616.541 502.703 616.351 503.342L616.831 503.485C616.64 504.126 616.447 504.766 616.25 505.404L615.772 505.257C615.575 505.896 615.375 506.533 615.172 507.17L615.649 507.322C615.445 507.961 615.237 508.599 615.027 509.235L614.552 509.078C614.342 509.713 614.129 510.346 613.913 510.978L614.386 511.14C614.17 511.774 613.95 512.406 613.727 513.036L613.256 512.87C613.033 513.499 612.808 514.126 612.58 514.753L613.049 514.924C612.819 515.554 612.587 516.182 612.35 516.809L611.883 516.633C611.647 517.259 611.408 517.884 611.166 518.507L611.632 518.688C611.39 519.313 611.144 519.936 610.896 520.557L610.431 520.372C610.183 520.992 609.932 521.61 609.678 522.227L610.14 522.418C609.886 523.036 609.628 523.653 609.367 524.268L608.907 524.073C608.646 524.689 608.382 525.304 608.115 525.917L608.573 526.116C608.305 526.731 608.034 527.344 607.76 527.955L607.304 527.751C607.031 528.361 606.754 528.969 606.475 529.575L606.929 529.785C606.649 530.393 606.367 530.999 606.081 531.604L605.629 531.39C605.343 531.994 605.055 532.595 604.764 533.195L605.214 533.414C604.921 534.017 604.625 534.619 604.327 535.219L603.879 534.996C603.581 535.595 603.28 536.191 602.977 536.786L603.422 537.014C603.117 537.61 602.81 538.205 602.499 538.798L602.056 538.566C601.747 539.158 601.434 539.748 601.119 540.336L601.559 540.572C601.243 541.162 600.923 541.75 600.601 542.337L600.163 542.096C599.841 542.682 599.516 543.266 599.188 543.849L599.624 544.094C599.295 544.678 598.964 545.26 598.63 545.841L598.196 545.591C597.863 546.17 597.526 546.747 597.187 547.322L597.618 547.576C597.278 548.153 596.935 548.727 596.589 549.3L596.161 549.042C595.816 549.614 595.468 550.184 595.117 550.752L595.543 551.015C595.191 551.585 594.836 552.154 594.478 552.72L594.055 552.453C593.699 553.018 593.339 553.581 592.977 554.142L593.397 554.414C593.034 554.976 592.668 555.537 592.299 556.096L591.882 555.82C591.514 556.378 591.143 556.933 590.77 557.486L591.185 557.766C590.81 558.321 590.433 558.875 590.053 559.426L589.641 559.142C589.262 559.693 588.88 560.241 588.495 560.787L588.904 561.075C588.518 561.623 588.13 562.168 587.739 562.712L587.333 562.42C586.943 562.962 586.55 563.502 586.154 564.04L586.557 564.337C586.161 564.876 585.762 565.413 585.36 565.949L584.96 565.649C584.559 566.183 584.155 566.716 583.749 567.246L584.146 567.55C583.739 568.082 583.328 568.612 582.916 569.139L582.522 568.831C582.11 569.357 581.696 569.881 581.279 570.403L581.67 570.715C581.252 571.238 580.832 571.76 580.409 572.278L580.021 571.963C579.599 572.48 579.174 572.996 578.747 573.509L579.132 573.829C578.703 574.344 578.272 574.857 577.839 575.367L577.458 575.044C577.025 575.553 576.59 576.06 576.153 576.565L576.531 576.892C576.092 577.398 575.651 577.902 575.207 578.404L574.833 578.073C574.39 578.573 573.945 579.071 573.498 579.567L573.869 579.902C573.421 580.399 572.97 580.894 572.516 581.387L572.148 581.048C571.696 581.54 571.241 582.029 570.783 582.516L571.148 582.858C570.689 583.346 570.228 583.832 569.765 584.316L569.404 583.97C568.942 584.452 568.477 584.932 568.01 585.41L568.368 585.759C567.9 586.238 567.429 586.715 566.956 587.189L566.602 586.836C566.13 587.309 565.656 587.779 565.18 588.247L565.53 588.604C565.053 589.073 564.573 589.54 564.09 590.005L563.744 589.645C563.262 590.108 562.779 590.569 562.293 591.028L562.636 591.391C562.15 591.851 561.66 592.308 561.169 592.763L560.829 592.396C560.339 592.85 559.846 593.301 559.351 593.75L559.687 594.121C559.191 594.57 558.693 595.018 558.192 595.462L557.86 595.089C557.361 595.532 556.86 595.974 556.356 596.412L556.684 596.789C556.18 597.229 555.672 597.667 555.163 598.102L554.838 597.721C554.33 598.155 553.82 598.586 553.307 599.015L553.628 599.399C553.114 599.828 552.598 600.256 552.08 600.68L551.763 600.294C551.247 600.717 550.729 601.138 550.208 601.556L550.521 601.946C549.999 602.365 549.475 602.781 548.949 603.195L548.639 602.802C548.114 603.215 547.587 603.626 547.058 604.034L547.363 604.43C546.833 604.839 546.3 605.245 545.765 605.649L545.464 605.25C544.931 605.652 544.396 606.052 543.858 606.449L544.156 606.851C543.617 607.249 543.077 607.644 542.535 608.037L542.242 607.632C541.701 608.023 541.158 608.412 540.613 608.798L540.902 609.206C540.356 609.594 539.807 609.978 539.257 610.36L538.972 609.949C538.423 610.33 537.872 610.708 537.319 611.084L537.599 611.498C537.046 611.874 536.49 612.247 535.932 612.618L535.655 612.201C535.099 612.571 534.541 612.937 533.982 613.301L534.254 613.721C533.693 614.086 533.13 614.448 532.565 614.807L532.296 614.385C531.733 614.744 531.167 615.099 530.599 615.452L530.863 615.877C530.294 616.231 529.724 616.582 529.151 616.93L528.891 616.503C528.321 616.85 527.748 617.194 527.174 617.535L527.43 617.965C526.855 618.307 526.278 618.646 525.699 618.982L525.448 618.55C524.87 618.886 524.291 619.218 523.71 619.548L523.957 619.983C523.374 620.313 522.79 620.641 522.204 620.966L521.961 620.529C521.377 620.853 520.79 621.174 520.202 621.493L520.44 621.933C519.852 622.251 519.262 622.566 518.67 622.879L518.437 622.437C517.847 622.749 517.255 623.058 516.661 623.364L516.891 623.808C516.296 624.115 515.699 624.419 515.1 624.72L514.876 624.273C514.279 624.573 513.68 624.871 513.079 625.165L513.3 625.614C512.698 625.909 512.095 626.201 511.49 626.491L511.274 626.039C510.672 626.327 510.069 626.612 509.464 626.893L509.675 627.347C509.069 627.629 508.461 627.908 507.851 628.185L507.644 627.73C507.036 628.005 506.426 628.278 505.815 628.548L506.017 629.006C505.404 629.276 504.789 629.544 504.173 629.808L503.975 629.349C503.362 629.613 502.746 629.873 502.129 630.131L502.322 630.592C501.705 630.85 501.086 631.104 500.467 631.356L500.279 630.892C499.66 631.143 499.04 631.391 498.419 631.636L498.602 632.101C497.979 632.347 497.355 632.589 496.729 632.829L496.55 632.362C495.926 632.6 495.3 632.836 494.672 633.069L494.846 633.538C494.218 633.77 493.589 634 492.959 634.227L492.789 633.756C492.162 633.982 491.533 634.204 490.903 634.424L491.068 634.896C490.436 635.116 489.803 635.333 489.168 635.546L489.008 635.073C488.375 635.286 487.741 635.496 487.105 635.703L487.26 636.178C486.622 636.386 485.983 636.59 485.343 636.792L485.193 636.315C484.557 636.515 483.919 636.712 483.279 636.906L483.424 637.385C482.785 637.579 482.144 637.77 481.502 637.957L481.362 637.478C480.722 637.665 480.08 637.849 479.437 638.03L479.572 638.511C478.928 638.693 478.282 638.871 477.634 639.047L477.504 638.564C476.858 638.739 476.211 638.91 475.563 639.079L475.688 639.563C475.041 639.731 474.393 639.896 473.743 640.058L473.622 639.573C472.976 639.734 472.328 639.892 471.679 640.047L471.795 640.533C471.144 640.688 470.492 640.84 469.839 640.989L469.728 640.502C469.077 640.65 468.424 640.795 467.77 640.938L467.876 641.426C467.221 641.569 466.564 641.708 465.906 641.844L465.805 641.354C465.152 641.489 464.498 641.621 463.843 641.75L463.939 642.24C463.284 642.369 462.628 642.495 461.97 642.617L461.879 642.125C461.223 642.247 460.566 642.366 459.907 642.482L459.994 642.974C459.334 643.09 458.673 643.203 458.011 643.312L457.93 642.819C457.269 642.928 456.608 643.034 455.945 643.136L456.022 643.63C455.362 643.733 454.7 643.832 454.038 643.928L453.967 643.433C453.308 643.528 452.647 643.62 451.986 643.709L452.053 644.205C451.39 644.294 450.726 644.38 450.062 644.463L450 643.966C449.337 644.049 448.673 644.128 448.007 644.204L448.064 644.701C447.397 644.777 446.73 644.85 446.061 644.92L446.009 644.422C445.346 644.491 444.683 644.557 444.018 644.62L444.065 645.118C443.4 645.18 442.735 645.239 442.069 645.295L442.027 644.797C441.363 644.853 440.697 644.906 440.031 644.955L440.068 645.454C439.4 645.503 438.731 645.549 438.061 645.592L438.029 645.093C437.36 645.136 436.691 645.176 436.021 645.212L436.048 645.711C435.381 645.748 434.713 645.78 434.044 645.81L434.022 645.311C433.358 645.34 432.692 645.366 432.026 645.389L432.043 645.889C431.375 645.912 430.706 645.932 430.037 645.948L430.024 645.448C429.357 645.465 428.688 645.478 428.018 645.488L428.026 645.988C427.354 645.998 426.682 646.004 426.01 646.007L426.007 645.507C425.672 645.509 425.336 645.51 425 645.51C424.664 645.51 424.328 645.509 423.992 645.507L423.99 646.007C423.317 646.004 422.645 645.998 421.974 645.988L421.981 645.488C421.312 645.478 420.643 645.465 419.975 645.448L419.963 645.948C419.293 645.932 418.624 645.912 417.957 645.889L417.974 645.389C417.308 645.366 416.642 645.34 415.977 645.311L415.955 645.81C415.286 645.78 414.618 645.748 413.951 645.711L413.978 645.212C413.308 645.176 412.639 645.136 411.971 645.093L411.939 645.592C411.269 645.549 410.6 645.503 409.932 645.454L409.969 644.955C409.303 644.906 408.637 644.853 407.972 644.797L407.931 645.295C407.264 645.239 406.599 645.18 405.935 645.117L405.982 644.62C405.317 644.557 404.653 644.491 403.991 644.422L403.939 644.92C403.27 644.85 402.602 644.777 401.935 644.701L401.992 644.204C401.327 644.128 400.663 644.049 400 643.966L399.938 644.463C399.273 644.38 398.609 644.294 397.947 644.205L398.013 643.709C397.352 643.62 396.692 643.528 396.033 643.433L395.961 643.928C395.299 643.832 394.638 643.733 393.978 643.63L394.054 643.136C393.392 643.034 392.73 642.928 392.07 642.819L391.988 643.312C391.326 643.202 390.665 643.09 390.006 642.974L390.092 642.482C389.434 642.366 388.777 642.247 388.121 642.125L388.03 642.617C387.372 642.494 386.716 642.369 386.06 642.24L386.157 641.75C385.502 641.621 384.848 641.489 384.195 641.354L384.093 641.844C383.436 641.708 382.779 641.569 382.123 641.426L382.23 640.937C381.576 640.795 380.923 640.65 380.272 640.502L380.16 640.989C379.507 640.84 378.855 640.688 378.205 640.533L378.321 640.047C377.672 639.892 377.024 639.734 376.378 639.573L376.257 640.058C375.607 639.896 374.959 639.731 374.311 639.563L374.437 639.079C373.789 638.91 373.142 638.739 372.496 638.564L372.365 639.047C371.718 638.871 371.072 638.693 370.427 638.511L370.563 638.03C369.92 637.849 369.278 637.665 368.638 637.477L368.497 637.957C367.855 637.77 367.215 637.579 366.575 637.385L366.721 636.906C366.081 636.712 365.443 636.515 364.806 636.315L364.656 636.792C364.016 636.59 363.377 636.386 362.74 636.178L362.895 635.703C362.259 635.496 361.624 635.286 360.991 635.072L360.832 635.546C360.197 635.332 359.564 635.116 358.932 634.896L359.096 634.423C358.466 634.204 357.838 633.982 357.21 633.756L357.041 634.227C356.41 634 355.781 633.77 355.154 633.537L355.327 633.069C354.7 632.836 354.074 632.6 353.45 632.361L353.271 632.828C352.645 632.589 352.02 632.347 351.397 632.101L351.581 631.636C350.959 631.391 350.339 631.143 349.721 630.892L349.533 631.356C348.913 631.104 348.295 630.85 347.678 630.592L347.871 630.131C347.254 629.873 346.638 629.612 346.024 629.349L345.827 629.808C345.211 629.544 344.596 629.276 343.983 629.006L344.185 628.548C343.573 628.278 342.964 628.005 342.355 627.729L342.149 628.185C341.539 627.908 340.931 627.629 340.325 627.346L340.536 626.893C339.931 626.612 339.327 626.327 338.726 626.039L338.51 626.49C337.905 626.201 337.302 625.909 336.7 625.614L336.92 625.165C336.32 624.871 335.721 624.573 335.124 624.273L334.899 624.72C334.301 624.419 333.704 624.115 333.109 623.808L333.338 623.364C332.745 623.058 332.153 622.749 331.563 622.437L331.329 622.879C330.738 622.566 330.148 622.251 329.56 621.932L329.798 621.493C329.209 621.174 328.623 620.853 328.038 620.529L327.796 620.966C327.21 620.641 326.625 620.313 326.043 619.983L326.29 619.548C325.709 619.218 325.129 618.885 324.552 618.55L324.301 618.982C323.722 618.646 323.145 618.307 322.57 617.965L322.825 617.535C322.251 617.194 321.679 616.85 321.109 616.503L320.849 616.93C320.276 616.582 319.705 616.231 319.136 615.877L319.4 615.452C318.833 615.099 318.267 614.744 317.703 614.385L317.435 614.807C316.87 614.448 316.307 614.085 315.746 613.72L316.018 613.301C315.458 612.937 314.9 612.571 314.345 612.201L314.068 612.618C313.51 612.247 312.954 611.874 312.4 611.497L312.681 611.084C312.128 610.708 311.577 610.33 311.028 609.949L310.743 610.36C310.193 609.978 309.644 609.593 309.098 609.206L309.387 608.798C308.842 608.412 308.299 608.023 307.758 607.632L307.465 608.037C306.923 607.644 306.382 607.249 305.844 606.851L306.141 606.449C305.604 606.052 305.069 605.652 304.536 605.249L304.234 605.648C303.7 605.245 303.167 604.839 302.636 604.43L302.942 604.034C302.412 603.626 301.885 603.215 301.36 602.802L301.051 603.195C300.525 602.781 300.001 602.365 299.479 601.945L299.792 601.555C299.271 601.137 298.753 600.717 298.236 600.293L297.919 600.68C297.401 600.255 296.885 599.828 296.372 599.398L296.692 599.015C296.18 598.586 295.67 598.155 295.161 597.721L294.837 598.101C294.327 597.666 293.82 597.229 293.315 596.789L293.644 596.412C293.14 595.973 292.639 595.532 292.14 595.089L291.807 595.462C291.307 595.017 290.809 594.57 290.313 594.12L290.649 593.75C290.154 593.301 289.661 592.85 289.171 592.396L288.831 592.763C288.34 592.308 287.85 591.851 287.363 591.391L287.707 591.027C287.221 590.569 286.737 590.108 286.256 589.644L285.909 590.005C285.427 589.54 284.947 589.073 284.47 588.604L284.82 588.247C284.344 587.779 283.869 587.308 283.398 586.835L283.044 587.188C282.571 586.714 282.1 586.238 281.632 585.759L281.99 585.409C281.523 584.932 281.058 584.452 280.596 583.969L280.235 584.315C279.771 583.832 279.31 583.346 278.852 582.858L279.216 582.516C278.759 582.029 278.304 581.539 277.852 581.048L277.484 581.387C277.03 580.894 276.579 580.399 276.131 579.902L276.502 579.567C276.054 579.071 275.609 578.573 275.167 578.072L274.792 578.404C274.349 577.902 273.908 577.398 273.469 576.892L273.847 576.564C273.41 576.06 272.975 575.553 272.542 575.043L272.161 575.367C271.727 574.856 271.296 574.344 270.868 573.829L271.252 573.509C270.825 572.996 270.401 572.48 269.979 571.962L269.591 572.278C269.168 571.759 268.748 571.238 268.33 570.715L268.72 570.403C268.304 569.881 267.889 569.357 267.478 568.831L267.084 569.139C266.671 568.611 266.261 568.082 265.854 567.55L266.251 567.246C265.844 566.715 265.441 566.183 265.04 565.648L264.64 565.949C264.238 565.413 263.839 564.876 263.442 564.336L263.845 564.04C263.45 563.502 263.057 562.962 262.667 562.42L262.261 562.712C261.87 562.168 261.482 561.622 261.096 561.075L261.505 560.787C261.12 560.241 260.738 559.692 260.359 559.142L259.947 559.426C259.567 558.874 259.19 558.321 258.815 557.766L259.23 557.486C258.856 556.933 258.486 556.377 258.118 555.82L257.701 556.095C257.332 555.537 256.966 554.976 256.603 554.413L257.023 554.142C256.661 553.581 256.301 553.018 255.944 552.453L255.522 552.72C255.164 552.153 254.809 551.585 254.457 551.015L254.883 550.752C254.532 550.184 254.184 549.614 253.839 549.042L253.411 549.3C253.065 548.727 252.722 548.152 252.382 547.576L252.813 547.322C252.473 546.747 252.137 546.17 251.804 545.591L251.37 545.84C251.036 545.26 250.704 544.678 250.376 544.094L250.812 543.849C250.484 543.266 250.159 542.682 249.837 542.096L249.399 542.337C249.076 541.75 248.757 541.162 248.441 540.572L248.881 540.336C248.566 539.748 248.253 539.158 247.944 538.566L247.501 538.798C247.19 538.205 246.883 537.61 246.578 537.014L247.023 536.786C246.72 536.191 246.419 535.594 246.121 534.996L245.673 535.219C245.374 534.619 245.079 534.017 244.786 533.413L245.236 533.195C244.945 532.595 244.656 531.993 244.371 531.39L243.919 531.604C243.633 530.999 243.35 530.392 243.07 529.784L243.525 529.575C243.245 528.969 242.969 528.36 242.696 527.751L242.24 527.955C241.966 527.344 241.695 526.731 241.427 526.116L241.885 525.916C241.618 525.303 241.354 524.689 241.093 524.073L240.633 524.268C240.372 523.653 240.114 523.036 239.859 522.417L240.322 522.227C240.068 521.61 239.817 520.991 239.569 520.371L239.104 520.557C238.856 519.935 238.61 519.312 238.368 518.688L238.834 518.507C238.592 517.884 238.353 517.259 238.117 516.633L237.649 516.809C237.413 516.182 237.18 515.554 236.951 514.924L237.42 514.752C237.192 514.126 236.966 513.499 236.744 512.87L236.273 513.036C236.05 512.405 235.83 511.773 235.613 511.14L236.087 510.978C235.87 510.346 235.658 509.713 235.448 509.078L234.973 509.235C234.763 508.598 234.555 507.961 234.351 507.321L234.828 507.169C234.624 506.533 234.424 505.896 234.228 505.257L233.75 505.404C233.553 504.765 233.36 504.126 233.169 503.484L233.649 503.342C233.459 502.702 233.272 502.062 233.088 501.419L232.608 501.557C232.424 500.913 232.243 500.268 232.065 499.621L232.547 499.489C232.37 498.844 232.196 498.198 232.025 497.55L231.542 497.678C231.371 497.031 231.203 496.382 231.039 495.733L231.524 495.61C231.36 494.964 231.2 494.317 231.043 493.669L230.557 493.787C230.4 493.137 230.246 492.485 230.095 491.833L230.582 491.72C230.431 491.069 230.284 490.417 230.14 489.764L229.652 489.872C229.507 489.217 229.366 488.561 229.228 487.903L229.717 487.801C229.58 487.148 229.446 486.494 229.316 485.839L228.825 485.936C228.695 485.282 228.568 484.626 228.443 483.968L228.935 483.876C228.811 483.22 228.691 482.563 228.573 481.906L228.081 481.993C227.964 481.334 227.849 480.674 227.738 480.012L228.231 479.929C228.121 479.269 228.013 478.608 227.909 477.946L227.415 478.024C227.311 477.363 227.211 476.702 227.113 476.04L227.608 475.967C227.511 475.308 227.418 474.648 227.328 473.988L226.832 474.055C226.742 473.393 226.654 472.729 226.57 472.065L227.067 472.002C226.983 471.339 226.902 470.675 226.825 470.01L226.329 470.068C226.251 469.401 226.177 468.734 226.107 468.065L226.604 468.012C226.534 467.35 226.467 466.686 226.404 466.021L225.906 466.069C225.842 465.404 225.782 464.739 225.725 464.073L226.224 464.031C226.167 463.366 226.113 462.701 226.063 462.035L225.565 462.072C225.514 461.404 225.467 460.735 225.424 460.065L225.923 460.033C225.879 459.365 225.839 458.696 225.802 458.026L225.303 458.053C225.266 457.386 225.233 456.718 225.203 456.049L225.702 456.026C225.672 455.362 225.646 454.697 225.623 454.03L225.123 454.048C225.1 453.38 225.08 452.711 225.063 452.042L225.563 452.029C225.546 451.361 225.533 450.693 225.523 450.023L225.023 450.031C225.013 449.359 225.006 448.687 225.003 448.015L225.503 448.012C225.501 447.677 225.5 447.341 225.5 447.005C225.5 446.669 225.501 446.333 225.503 445.997L225.003 445.995C225.006 445.322 225.013 444.65 225.023 443.979L225.523 443.986C225.533 443.317 225.546 442.648 225.563 441.98L225.063 441.968C225.08 441.298 225.1 440.63 225.123 439.962L225.623 439.979C225.646 439.313 225.672 438.648 225.702 437.983L225.203 437.961C225.233 437.292 225.266 436.623 225.303 435.956L225.802 435.984C225.839 435.314 225.879 434.645 225.923 433.977L225.424 433.944C225.467 433.274 225.514 432.605 225.565 431.937L226.063 431.975C226.113 431.309 226.167 430.643 226.224 429.979L225.725 429.936C225.782 429.27 225.842 428.605 225.906 427.941L226.404 427.988C226.467 427.324 226.534 426.66 226.604 425.997L226.107 425.944C226.177 425.276 226.251 424.608 226.329 423.942L226.825 423.999C226.902 423.334 226.983 422.67 227.067 422.008L226.571 421.945C226.654 421.28 226.742 420.617 226.832 419.954L227.328 420.022C227.418 419.361 227.511 418.701 227.608 418.043L227.113 417.97C227.211 417.308 227.311 416.646 227.415 415.986L227.909 416.064C228.013 415.401 228.121 414.74 228.231 414.08L227.738 413.998C227.849 413.336 227.964 412.675 228.081 412.016L228.573 412.104C228.691 411.446 228.811 410.789 228.935 410.134L228.444 410.041C228.568 409.384 228.695 408.728 228.825 408.073L229.316 408.171C229.446 407.516 229.58 406.862 229.717 406.209L229.228 406.106C229.366 405.449 229.507 404.793 229.652 404.138L230.14 404.246C230.284 403.592 230.431 402.94 230.582 402.29L230.095 402.177C230.246 401.524 230.4 400.873 230.557 400.223L231.043 400.341C231.2 399.692 231.361 399.045 231.524 398.399L231.039 398.277C231.204 397.627 231.371 396.979 231.542 396.332L232.025 396.459C232.196 395.812 232.37 395.166 232.547 394.521L232.065 394.388C232.243 393.742 232.424 393.097 232.608 392.453L233.088 392.59C233.272 391.948 233.459 391.307 233.649 390.668L233.169 390.525C233.36 389.884 233.553 389.244 233.75 388.606L234.228 388.753C234.425 388.114 234.625 387.477 234.828 386.84L234.351 386.688C234.555 386.049 234.763 385.411 234.973 384.775L235.448 384.932C235.658 384.297 235.871 383.664 236.087 383.032L235.614 382.87C235.83 382.236 236.05 381.604 236.273 380.974L236.744 381.14C236.967 380.511 237.192 379.883 237.42 379.257L236.951 379.086C237.181 378.456 237.413 377.828 237.65 377.201L238.117 377.377C238.353 376.751 238.592 376.126 238.834 375.503L238.368 375.322C238.61 374.697 238.856 374.074 239.104 373.453L239.569 373.638C239.817 373.018 240.068 372.4 240.322 371.783L239.86 371.592C240.114 370.974 240.372 370.357 240.633 369.742L241.093 369.937C241.354 369.321 241.618 368.706 241.885 368.093L241.427 367.894C241.695 367.279 241.966 366.666 242.24 366.055L242.696 366.259C242.969 365.649 243.246 365.041 243.525 364.434L243.071 364.225C243.351 363.617 243.633 363.011 243.919 362.406L244.371 362.62C244.657 362.016 244.945 361.415 245.236 360.814L244.786 360.596C245.079 359.993 245.375 359.391 245.673 358.791L246.121 359.014C246.419 358.415 246.72 357.819 247.024 357.224L246.578 356.996C246.883 356.4 247.19 355.805 247.501 355.212L247.944 355.444C248.253 354.852 248.566 354.262 248.881 353.674L248.441 353.438C248.757 352.848 249.076 352.259 249.399 351.673L249.837 351.914C250.159 351.328 250.484 350.743 250.812 350.161L250.376 349.916C250.705 349.332 251.036 348.75 251.37 348.169L251.804 348.419C252.137 347.84 252.474 347.263 252.813 346.688L252.382 346.434C252.722 345.857 253.065 345.283 253.411 344.71L253.839 344.968C254.184 344.396 254.532 343.826 254.883 343.258L254.457 342.995C254.809 342.425 255.164 341.856 255.522 341.29L255.945 341.557C256.301 340.992 256.661 340.429 257.023 339.867L256.603 339.596C256.966 339.034 257.332 338.473 257.701 337.914L258.118 338.19C258.486 337.632 258.857 337.077 259.23 336.524L258.815 336.244C259.19 335.689 259.567 335.135 259.947 334.584L260.359 334.868C260.738 334.317 261.12 333.769 261.505 333.223L261.096 332.935C261.482 332.387 261.87 331.842 262.261 331.298L262.667 331.59C263.057 331.048 263.45 330.508 263.846 329.969L263.443 329.673C263.839 329.134 264.238 328.596 264.64 328.061L265.04 328.361C265.441 327.827 265.845 327.294 266.251 326.764L265.854 326.46C266.261 325.928 266.672 325.398 267.084 324.871L267.478 325.179C267.89 324.653 268.304 324.129 268.721 323.607L268.33 323.295C268.748 322.772 269.168 322.25 269.591 321.731L269.979 322.047C270.401 321.53 270.826 321.014 271.253 320.501L270.868 320.181C271.297 319.666 271.728 319.153 272.161 318.643L272.542 318.966C272.975 318.457 273.41 317.95 273.847 317.445L273.469 317.118C273.908 316.612 274.349 316.108 274.793 315.606L275.167 315.937C275.61 315.437 276.055 314.939 276.502 314.443L276.131 314.108C276.579 313.611 277.031 313.116 277.484 312.623L277.852 312.962C278.304 312.47 278.759 311.981 279.217 311.494L278.852 311.152C279.311 310.664 279.772 310.178 280.235 309.694L280.596 310.04C281.058 309.558 281.523 309.078 281.99 308.6L281.632 308.251C282.1 307.772 282.571 307.295 283.044 306.821L283.398 307.174C283.87 306.701 284.344 306.231 284.82 305.763L284.47 305.406C284.947 304.937 285.427 304.47 285.91 304.005L286.256 304.365C286.738 303.902 287.221 303.441 287.707 302.982L287.364 302.619C287.851 302.159 288.34 301.702 288.831 301.247L289.171 301.614C289.661 301.16 290.154 300.709 290.649 300.26L290.313 299.889C290.809 299.44 291.307 298.992 291.808 298.547L292.14 298.921C292.639 298.477 293.14 298.036 293.644 297.597L293.316 297.22C293.82 296.781 294.328 296.343 294.837 295.908L295.162 296.289C295.67 295.855 296.18 295.424 296.693 294.995L296.372 294.611C296.886 294.182 297.402 293.754 297.92 293.33L298.237 293.716C298.753 293.293 299.271 292.872 299.792 292.454L299.479 292.064C300.001 291.645 300.525 291.229 301.051 290.815L301.361 291.207C301.886 290.794 302.413 290.384 302.942 289.976L302.637 289.58C303.167 289.171 303.7 288.765 304.235 288.361L304.536 288.76C305.069 288.358 305.604 287.958 306.142 287.561L305.844 287.159C306.383 286.761 306.923 286.366 307.465 285.973L307.758 286.378C308.299 285.987 308.842 285.598 309.387 285.211L309.098 284.804C309.644 284.416 310.193 284.032 310.743 283.65L311.028 284.061C311.577 283.68 312.128 283.301 312.681 282.926L312.401 282.512C312.954 282.136 313.51 281.763 314.068 281.392L314.345 281.809C314.901 281.439 315.459 281.072 316.018 280.708L315.746 280.289C316.307 279.924 316.87 279.562 317.435 279.203L317.704 279.625C318.267 279.266 318.833 278.91 319.401 278.557L319.137 278.133C319.706 277.779 320.276 277.428 320.849 277.08L321.109 277.507C321.679 277.16 322.252 276.816 322.826 276.475L322.57 276.045C323.145 275.703 323.722 275.364 324.301 275.028L324.552 275.46C325.13 275.124 325.709 274.792 326.29 274.462L326.043 274.027C326.626 273.696 327.21 273.369 327.796 273.044L328.039 273.481C328.623 273.157 329.21 272.835 329.798 272.517L329.56 272.077C330.148 271.759 330.738 271.443 331.33 271.131L331.563 271.573C332.153 271.261 332.745 270.952 333.339 270.646L333.109 270.202C333.704 269.895 334.301 269.591 334.9 269.29L335.124 269.737C335.721 269.436 336.32 269.139 336.921 268.845L336.7 268.396C337.302 268.101 337.905 267.809 338.51 267.519L338.726 267.97C339.328 267.683 339.931 267.398 340.536 267.117L340.325 266.663C340.931 266.381 341.539 266.101 342.149 265.825L342.356 266.28C342.964 266.004 343.574 265.732 344.185 265.462L343.983 265.004C344.596 264.734 345.211 264.466 345.827 264.202L346.025 264.661C346.638 264.397 347.254 264.137 347.871 263.879L347.678 263.418C348.295 263.16 348.914 262.906 349.533 262.654L349.721 263.118C350.34 262.867 350.96 262.619 351.581 262.374L351.398 261.909C352.021 261.663 352.645 261.421 353.271 261.181L353.45 261.648C354.074 261.41 354.7 261.174 355.328 260.941L355.154 260.472C355.782 260.24 356.411 260.01 357.041 259.783L357.211 260.254C357.838 260.028 358.467 259.806 359.097 259.586L358.932 259.114C359.564 258.894 360.197 258.677 360.832 258.464L360.992 258.937C361.625 258.724 362.259 258.514 362.895 258.307L362.74 257.832C363.378 257.624 364.016 257.419 364.657 257.218L364.807 257.695C365.443 257.495 366.081 257.298 366.721 257.104L366.576 256.625C367.215 256.431 367.856 256.24 368.498 256.053L368.638 256.532C369.279 256.345 369.92 256.161 370.563 255.98L370.428 255.499C371.072 255.317 371.719 255.139 372.366 254.963L372.496 255.446C373.142 255.271 373.789 255.1 374.437 254.931L374.312 254.447C374.959 254.279 375.607 254.114 376.257 253.952L376.378 254.437C377.024 254.276 377.672 254.118 378.321 253.963L378.205 253.477C378.856 253.322 379.508 253.17 380.161 253.021L380.272 253.508C380.923 253.36 381.576 253.215 382.23 253.072L382.124 252.584C382.779 252.441 383.436 252.302 384.094 252.166L384.195 252.656C384.848 252.521 385.502 252.389 386.157 252.26L386.061 251.77C386.716 251.641 387.372 251.515 388.03 251.393L388.121 251.885C388.777 251.763 389.434 251.644 390.093 251.528L390.006 251.036C390.666 250.92 391.327 250.807 391.989 250.698L392.07 251.191C392.731 251.082 393.392 250.976 394.055 250.874L393.978 250.38C394.638 250.277 395.3 250.178 395.962 250.082L396.033 250.577C396.692 250.482 397.353 250.39 398.014 250.301L397.947 249.805C398.61 249.716 399.274 249.63 399.938 249.547L400 250.043C400.663 249.961 401.327 249.882 401.993 249.806L401.936 249.309C402.603 249.233 403.27 249.16 403.939 249.09L403.991 249.588C404.654 249.519 405.317 249.453 405.982 249.39L405.935 248.892C406.6 248.83 407.265 248.771 407.931 248.715L407.973 249.213C408.637 249.157 409.303 249.104 409.969 249.055L409.932 248.556C410.6 248.507 411.269 248.461 411.939 248.418L411.971 248.917C412.64 248.874 413.309 248.834 413.979 248.798L413.952 248.299C414.619 248.262 415.287 248.229 415.956 248.2L415.978 248.699C416.642 248.67 417.308 248.644 417.974 248.621L417.957 248.121C418.625 248.098 419.294 248.078 419.963 248.062L419.976 248.562C420.643 248.545 421.312 248.532 421.982 248.522L421.974 248.022C422.646 248.012 423.318 248.006 423.99 248.002L423.993 248.502C424.328 248.501 424.664 248.5 425 248.5C425.336 248.5 425.672 248.501 426.008 248.502L426.01 248.002C426.683 248.006 427.355 248.012 428.026 248.022L428.019 248.522C428.688 248.532 429.357 248.545 430.025 248.562L430.037 248.062C430.707 248.078 431.376 248.098 432.043 248.121L432.026 248.621C432.692 248.644 433.358 248.67 434.023 248.699L434.045 248.2C434.714 248.229 435.382 248.262 436.049 248.299L436.022 248.798C436.692 248.834 437.361 248.874 438.029 248.917L438.061 248.418C438.731 248.461 439.4 248.507 440.068 248.556L440.031 249.055C440.697 249.104 441.363 249.157 442.028 249.213L442.069 248.715C442.736 248.771 443.401 248.83 444.065 248.892L444.018 249.39C444.683 249.453 445.347 249.519 446.009 249.588L446.061 249.09C446.73 249.16 447.398 249.233 448.065 249.309L448.008 249.806C448.673 249.882 449.337 249.961 450 250.044L450.062 249.547C450.727 249.63 451.391 249.716 452.053 249.805L451.987 250.301C452.648 250.39 453.308 250.482 453.967 250.577L454.039 250.082C454.701 250.178 455.362 250.277 456.022 250.38L455.946 250.874C456.608 250.976 457.27 251.082 457.93 251.191L458.012 250.698C458.674 250.807 459.335 250.92 459.994 251.036L459.908 251.528C460.566 251.644 461.223 251.763 461.879 251.885L461.97 251.393C462.628 251.515 463.284 251.641 463.94 251.77L463.843 252.26C464.498 252.389 465.152 252.521 465.805 252.656L465.907 252.166C466.564 252.302 467.221 252.441 467.877 252.584L467.77 253.072C468.424 253.215 469.077 253.36 469.728 253.508L469.84 253.021C470.493 253.17 471.145 253.322 471.795 253.477L471.679 253.963C472.328 254.118 472.976 254.276 473.622 254.437L473.743 253.952C474.393 254.114 475.041 254.279 475.689 254.447L475.563 254.931C476.211 255.1 476.858 255.271 477.504 255.446L477.635 254.963C478.282 255.139 478.928 255.317 479.573 255.499L479.437 255.98C480.08 256.161 480.722 256.345 481.362 256.533L481.503 256.053C482.145 256.24 482.785 256.431 483.425 256.625L483.279 257.104C483.919 257.298 484.557 257.495 485.194 257.695L485.344 257.218C485.984 257.42 486.623 257.624 487.26 257.832L487.105 258.307C487.741 258.514 488.376 258.724 489.009 258.938L489.168 258.464C489.803 258.677 490.436 258.894 491.068 259.114L490.904 259.586C491.534 259.806 492.162 260.028 492.79 260.254L492.959 259.783C493.59 260.01 494.219 260.24 494.846 260.472L494.673 260.941C495.3 261.174 495.926 261.41 496.55 261.649L496.729 261.182C497.355 261.421 497.98 261.663 498.603 261.909L498.419 262.374C499.041 262.619 499.66 262.867 500.279 263.118L500.467 262.654C501.087 262.906 501.705 263.16 502.322 263.418L502.129 263.879C502.746 264.137 503.362 264.397 503.976 264.661L504.173 264.202C504.789 264.466 505.404 264.734 506.017 265.004L505.815 265.462C506.427 265.732 507.036 266.005 507.645 266.28L507.851 265.825C508.461 266.102 509.069 266.381 509.675 266.663L509.464 267.117C510.069 267.398 510.673 267.683 511.274 267.971L511.49 267.519C512.095 267.809 512.698 268.101 513.3 268.396L513.08 268.845C513.68 269.139 514.279 269.437 514.876 269.737L515.101 269.29C515.699 269.591 516.296 269.895 516.891 270.202L516.662 270.646C517.255 270.952 517.847 271.261 518.437 271.573L518.671 271.131C519.262 271.444 519.852 271.759 520.44 272.077L520.202 272.517C520.791 272.836 521.377 273.157 521.962 273.481L522.204 273.044C522.79 273.369 523.375 273.697 523.957 274.027L523.71 274.462C524.291 274.792 524.871 275.125 525.448 275.46L525.699 275.028C526.278 275.364 526.855 275.703 527.43 276.045L527.175 276.475C527.749 276.816 528.321 277.16 528.891 277.507L529.151 277.08C529.724 277.428 530.295 277.779 530.864 278.133L530.6 278.558C531.167 278.911 531.733 279.266 532.297 279.625L532.565 279.203C533.13 279.562 533.693 279.925 534.254 280.289L533.982 280.709C534.542 281.073 535.1 281.439 535.655 281.809L535.932 281.392C536.49 281.763 537.046 282.136 537.6 282.512L537.319 282.926C537.872 283.302 538.423 283.68 538.972 284.061L539.257 283.65C539.807 284.032 540.356 284.416 540.902 284.804L540.613 285.212C541.158 285.598 541.701 285.987 542.242 286.378L542.535 285.973C543.077 286.366 543.618 286.761 544.156 287.159L543.859 287.561C544.396 287.958 544.931 288.358 545.464 288.761L545.766 288.361C546.3 288.765 546.833 289.171 547.364 289.58L547.058 289.976C547.588 290.384 548.115 290.795 548.64 291.208L548.949 290.815C549.475 291.229 549.999 291.645 550.521 292.065L550.208 292.454C550.729 292.873 551.247 293.293 551.764 293.717L552.081 293.33C552.599 293.755 553.115 294.182 553.628 294.612L553.308 294.995C553.82 295.424 554.33 295.855 554.839 296.289L555.163 295.909C555.673 296.343 556.18 296.781 556.685 297.221L556.356 297.598C556.86 298.036 557.361 298.478 557.86 298.921L558.193 298.548C558.693 298.993 559.191 299.44 559.687 299.89L559.351 300.26C559.846 300.709 560.339 301.16 560.829 301.614L561.169 301.247C561.66 301.702 562.15 302.159 562.637 302.619L562.293 302.983C562.779 303.441 563.263 303.902 563.744 304.366L564.091 304.005C564.573 304.47 565.053 304.937 565.53 305.406L565.18 305.763C565.656 306.231 566.131 306.702 566.602 307.175L566.956 306.821C567.429 307.296 567.9 307.772 568.368 308.251L568.01 308.601C568.477 309.078 568.942 309.558 569.404 310.041L569.765 309.695C570.229 310.178 570.69 310.664 571.148 311.152L570.784 311.494C571.241 311.981 571.696 312.471 572.148 312.962L572.516 312.623C572.97 313.116 573.421 313.611 573.869 314.108L573.498 314.443C573.946 314.939 574.391 315.437 574.833 315.938L575.208 315.606C575.651 316.108 576.092 316.612 576.531 317.118L576.153 317.445C576.59 317.95 577.025 318.457 577.458 318.967L577.839 318.643C578.273 319.154 578.703 319.666 579.132 320.181L578.748 320.501C579.175 321.014 579.599 321.53 580.021 322.048L580.409 321.732C580.832 322.251 581.252 322.772 581.67 323.295L581.28 323.607C581.696 324.129 582.111 324.653 582.522 325.179L582.916 324.871C583.329 325.399 583.739 325.928 584.146 326.46L583.749 326.764C584.156 327.294 584.559 327.827 584.96 328.361L585.36 328.061C585.762 328.597 586.161 329.134 586.558 329.674L586.155 329.97C586.55 330.508 586.943 331.048 587.333 331.59L587.739 331.298C588.13 331.842 588.518 332.387 588.904 332.935L588.495 333.223C588.88 333.769 589.262 334.318 589.641 334.868L590.053 334.584C590.433 335.135 590.81 335.689 591.185 336.244L590.77 336.524C591.144 337.077 591.514 337.633 591.882 338.19L592.299 337.915C592.668 338.473 593.034 339.034 593.397 339.597L592.977 339.868C593.339 340.429 593.699 340.992 594.056 341.557L594.478 341.29C594.836 341.857 595.191 342.425 595.543 342.995L595.117 343.258C595.468 343.826 595.816 344.396 596.161 344.968L596.589 344.71C596.935 345.283 597.278 345.858 597.618 346.434L597.187 346.688C597.527 347.263 597.863 347.84 598.196 348.419L598.63 348.17C598.964 348.75 599.296 349.332 599.624 349.916L599.188 350.161C599.516 350.744 599.841 351.328 600.163 351.914L600.601 351.673C600.924 352.26 601.243 352.848 601.559 353.438L601.119 353.674C601.434 354.262 601.747 354.852 602.056 355.444L602.499 355.212C602.81 355.805 603.117 356.4 603.422 356.996L602.977 357.224C603.28 357.819 603.581 358.416 603.879 359.014L604.327 358.791C604.626 359.391 604.921 359.993 605.214 360.596L604.764 360.815C605.055 361.415 605.344 362.017 605.629 362.62L606.081 362.406C606.367 363.011 606.65 363.618 606.93 364.226L606.475 364.435C606.755 365.041 607.031 365.65 607.304 366.259L607.76 366.055C608.034 366.666 608.305 367.279 608.573 367.894L608.115 368.094C608.382 368.707 608.646 369.321 608.907 369.937L609.367 369.742C609.628 370.357 609.886 370.974 610.141 371.593L609.678 371.783C609.932 372.4 610.183 373.019 610.431 373.639L610.896 373.453C611.144 374.075 611.39 374.698 611.632 375.322L611.166 375.503C611.408 376.126 611.647 376.751 611.883 377.377L612.351 377.201C612.587 377.828 612.82 378.456 613.049 379.086L612.58 379.258C612.808 379.884 613.034 380.511 613.256 381.14L613.727 380.974C613.95 381.604 614.17 382.237 614.387 382.87L613.913 383.032C614.13 383.664 614.342 384.297 614.552 384.932L615.027 384.775C615.237 385.412 615.445 386.049 615.649 386.689L615.172 386.841C615.376 387.477 615.576 388.114 615.772 388.753L616.25 388.606C616.447 389.245 616.64 389.884 616.831 390.526L616.351 390.668C616.541 391.307 616.728 391.948 616.912 392.591L617.392 392.453C617.576 393.097 617.757 393.742 617.935 394.389L617.453 394.521C617.63 395.166 617.804 395.812 617.975 396.46L618.458 396.332C618.629 396.979 618.797 397.627 618.961 398.277L618.476 398.4C618.64 399.045 618.8 399.693 618.957 400.341L619.443 400.223C619.6 400.873 619.754 401.525 619.905 402.177L619.418 402.29C619.569 402.941 619.716 403.593 619.86 404.246L620.348 404.138C620.493 404.793 620.634 405.449 620.772 406.107L620.283 406.209C620.42 406.862 620.554 407.516 620.684 408.171L621.175 408.074C621.305 408.728 621.432 409.384 621.557 410.042L621.065 410.134C621.189 410.79 621.309 411.446 621.427 412.104L621.919 412.016C622.036 412.676 622.151 413.336 622.262 413.998L621.769 414.081C621.879 414.741 621.987 415.402 622.091 416.064L622.585 415.986C622.689 416.647 622.789 417.308 622.887 417.97L622.392 418.043C622.489 418.702 622.582 419.362 622.672 420.022L623.168 419.955C623.258 420.617 623.346 421.281 623.43 421.945L622.933 422.008C623.017 422.671 623.098 423.335 623.175 424L623.671 423.942C623.749 424.609 623.823 425.276 623.893 425.945L623.396 425.997C623.466 426.66 623.533 427.324 623.596 427.989L624.094 427.941C624.158 428.606 624.218 429.271 624.275 429.937L623.776 429.979C623.833 430.644 623.887 431.309 623.937 431.975L624.435 431.938C624.486 432.606 624.533 433.275 624.576 433.945L624.077 433.977C624.121 434.645 624.161 435.314 624.198 435.984L624.697 435.957C624.734 436.624 624.767 437.292 624.797 437.961L624.298 437.984C624.328 438.648 624.354 439.313 624.377 439.98L624.877 439.962C624.9 440.63 624.92 441.299 624.937 441.968L624.437 441.981C624.454 442.649 624.467 443.317 624.477 443.987L624.977 443.979Z" fill="url(#paint3_radial_300_304)" fill-opacity="0.1" stroke="#6A30F1" stroke-dasharray="2 2"/>
<circle cx="425" cy="448" r="124.5" fill="url(#paint4_radial_300_304)" fill-opacity="0.1" stroke="#6A30F1" stroke-dasharray="2 2"/>
<rect opacity="0.5" x="425" width="1" height="448" fill="#6A30F1"/>
<rect opacity="0.5" x="201" y="60.5" width="1" height="448" transform="rotate(-30 201 60.5)" fill="#6A30F1"/>
<rect opacity="0.5" width="1" height="448" transform="matrix(-0.866025 -0.5 -0.5 0.866025 649.866 60.5)" fill="#6A30F1"/>
<rect opacity="0.5" width="1" height="448" transform="matrix(-0.5 -0.866025 -0.866025 0.5 812.479 224.866)" fill="#6A30F1"/>
<rect opacity="0.5" x="426.479" y="448" width="1" height="448" transform="rotate(120 426.479 448)" fill="#6A30F1"/>
<defs>
<radialGradient id="paint0_radial_300_304" cx="0" cy="0" r="1" gradientUnits="userSpaceOnUse" gradientTransform="translate(425 448) rotate(90) scale(943.5)">
<stop stop-color="#9E88FD"/>
<stop offset="1" stop-color="#19054F"/>
</radialGradient>
<radialGradient id="paint1_radial_300_304" cx="0" cy="0" r="1" gradientUnits="userSpaceOnUse" gradientTransform="translate(425 448) rotate(90) scale(777)">
<stop stop-color="#9E88FD"/>
<stop offset="1" stop-color="#19054F"/>
</radialGradient>
<radialGradient id="paint2_radial_300_304" cx="0" cy="0" r="1" gradientUnits="userSpaceOnUse" gradientTransform="translate(425 448) rotate(90) scale(610.5)">
<stop stop-color="#9E88FD"/>
<stop offset="1" stop-color="#19054F"/>
</radialGradient>
<radialGradient id="paint3_radial_300_304" cx="0" cy="0" r="1" gradientUnits="userSpaceOnUse" gradientTransform="translate(425 447.005) rotate(90) scale(441.791 444)">
<stop stop-color="#9E88FD"/>
<stop offset="1" stop-color="#19054F"/>
</radialGradient>
<radialGradient id="paint4_radial_300_304" cx="0" cy="0" r="1" gradientUnits="userSpaceOnUse" gradientTransform="translate(425 448) rotate(90) scale(277.5)">
<stop stop-color="#9E88FD"/>
<stop offset="1" stop-color="#19054F"/>
</radialGradient>
</defs>
</svg>