<svg width="98" height="98" viewBox="0 0 98 98" fill="none" xmlns="http://www.w3.org/2000/svg">
<g filter="url(#filter0_d_300_315)">
<circle cx="49" cy="45" r="29" fill="white" fill-opacity="0.8"/>
<circle cx="49" cy="45" r="28.5" stroke="#5F24DD"/>
</g>
<path opacity="0.2" d="M61 36V54C61 54.2652 60.8946 54.5196 60.7071 54.7071C60.5196 54.8946 60.2652 55 60 55H38C37.7348 55 37.4804 54.8946 37.2929 54.7071C37.1054 54.5196 37 54.2652 37 54V36C37 35.7348 37.1054 35.4804 37.2929 35.2929C37.4804 35.1054 37.7348 35 38 35H60C60.2652 35 60.5196 35.1054 60.7071 35.2929C60.8946 35.4804 61 35.7348 61 36Z" fill="#5F24DD"/>
<path d="M60 34H38C37.4696 34 36.9609 34.2107 36.5858 34.5858C36.2107 34.9609 36 35.4696 36 36V54C36 54.5304 36.2107 55.0391 36.5858 55.4142C36.9609 55.7893 37.4696 56 38 56H60C60.5304 56 61.0391 55.7893 61.4142 55.4142C61.7893 55.0391 62 54.5304 62 54V36C62 35.4696 61.7893 34.9609 61.4142 34.5858C61.0391 34.2107 60.5304 34 60 34ZM60 54H38V36H60V54ZM55 40C55 41.5913 54.3679 43.1174 53.2426 44.2426C52.1174 45.3679 50.5913 46 49 46C47.4087 46 45.8826 45.3679 44.7574 44.2426C43.6321 43.1174 43 41.5913 43 40C43 39.7348 43.1054 39.4804 43.2929 39.2929C43.4804 39.1054 43.7348 39 44 39C44.2652 39 44.5196 39.1054 44.7071 39.2929C44.8946 39.4804 45 39.7348 45 40C45 41.0609 45.4214 42.0783 46.1716 42.8284C46.9217 43.5786 47.9391 44 49 44C50.0609 44 51.0783 43.5786 51.8284 42.8284C52.5786 42.0783 53 41.0609 53 40C53 39.7348 53.1054 39.4804 53.2929 39.2929C53.4804 39.1054 53.7348 39 54 39C54.2652 39 54.5196 39.1054 54.7071 39.2929C54.8946 39.4804 55 39.7348 55 40Z" fill="#5F24DD"/>
<defs>
<filter id="filter0_d_300_315" x="0" y="0" width="98" height="98" filterUnits="userSpaceOnUse" color-interpolation-filters="sRGB">
<feFlood flood-opacity="0" result="BackgroundImageFix"/>
<feColorMatrix in="SourceAlpha" type="matrix" values="0 0 0 0 0 0 0 0 0 0 0 0 0 0 0 0 0 0 127 0" result="hardAlpha"/>
<feOffset dy="4"/>
<feGaussianBlur stdDeviation="10"/>
<feColorMatrix type="matrix" values="0 0 0 0 0.619608 0 0 0 0 0.533333 0 0 0 0 0.992157 0 0 0 0.6 0"/>
<feBlend mode="normal" in2="BackgroundImageFix" result="effect1_dropShadow_300_315"/>
<feBlend mode="normal" in="SourceGraphic" in2="effect1_dropShadow_300_315" result="shape"/>
</filter>
</defs>
</svg>
