<svg width="98" height="98" viewBox="0 0 98 98" fill="none" xmlns="http://www.w3.org/2000/svg">
<g filter="url(#filter0_d_300_345)">
<circle cx="49" cy="45" r="29" fill="white" fill-opacity="0.8"/>
<circle cx="49" cy="45" r="28.5" stroke="#5F24DD"/>
</g>
<path opacity="0.2" d="M62 40.75C62 49 49 56 49 56C49 56 36 49 36 40.75C36 38.9598 36.7112 37.2429 37.977 35.977C39.2429 34.7112 40.9598 34 42.75 34C45.5737 34 47.9925 35.5387 49 38C50.0075 35.5387 52.4263 34 55.25 34C57.0402 34 58.7571 34.7112 60.023 35.977C61.2888 37.2429 62 38.9598 62 40.75Z" fill="#5F24DD"/>
<path d="M55.25 33C52.6688 33 50.4088 34.11 49 35.9862C47.5912 34.11 45.3313 33 42.75 33C40.6953 33.0023 38.7254 33.8196 37.2725 35.2725C35.8196 36.7254 35.0023 38.6953 35 40.75C35 49.5 47.9738 56.5825 48.5262 56.875C48.6719 56.9533 48.8346 56.9943 49 56.9943C49.1654 56.9943 49.3281 56.9533 49.4737 56.875C50.0262 56.5825 63 49.5 63 40.75C62.9977 38.6953 62.1804 36.7254 60.7275 35.2725C59.2746 33.8196 57.3047 33.0023 55.25 33ZM49 54.85C46.7175 53.52 37 47.4613 37 40.75C37.002 39.2256 37.6084 37.7642 38.6863 36.6863C39.7642 35.6084 41.2256 35.002 42.75 35C45.1812 35 47.2225 36.295 48.075 38.375C48.1503 38.5584 48.2785 38.7153 48.4432 38.8257C48.6079 38.9361 48.8017 38.995 49 38.995C49.1983 38.995 49.3921 38.9361 49.5568 38.8257C49.7215 38.7153 49.8497 38.5584 49.925 38.375C50.7775 36.2912 52.8188 35 55.25 35C56.7744 35.002 58.2358 35.6084 59.3137 36.6863C60.3916 37.7642 60.998 39.2256 61 40.75C61 47.4513 51.28 53.5188 49 54.85Z" fill="#5F24DD"/>
<defs>
<filter id="filter0_d_300_345" x="0" y="0" width="98" height="98" filterUnits="userSpaceOnUse" color-interpolation-filters="sRGB">
<feFlood flood-opacity="0" result="BackgroundImageFix"/>
<feColorMatrix in="SourceAlpha" type="matrix" values="0 0 0 0 0 0 0 0 0 0 0 0 0 0 0 0 0 0 127 0" result="hardAlpha"/>
<feOffset dy="4"/>
<feGaussianBlur stdDeviation="10"/>
<feColorMatrix type="matrix" values="0 0 0 0 0.619608 0 0 0 0 0.533333 0 0 0 0 0.992157 0 0 0 0.6 0"/>
<feBlend mode="normal" in2="BackgroundImageFix" result="effect1_dropShadow_300_345"/>
<feBlend mode="normal" in="SourceGraphic" in2="effect1_dropShadow_300_345" result="shape"/>
</filter>
</defs>
</svg>
