<svg width="98" height="98" viewBox="0 0 98 98" fill="none" xmlns="http://www.w3.org/2000/svg">
<g filter="url(#filter0_d_300_320)">
<circle cx="49" cy="45" r="29" fill="white" fill-opacity="0.8"/>
<circle cx="49" cy="45" r="28.5" stroke="#5F24DD"/>
</g>
<path opacity="0.2" d="M58 37V39H55C54.4696 39 53.9609 39.2107 53.5858 39.5858C53.2107 39.9609 53 40.4696 53 41V51H38C37.4696 51 36.9609 50.7893 36.5858 50.4142C36.2107 50.0391 36 49.5304 36 49V37C36 36.4696 36.2107 35.9609 36.5858 35.5858C36.9609 35.2107 37.4696 35 38 35H56C56.5304 35 57.0391 35.2107 57.4142 35.5858C57.7893 35.9609 58 36.4696 58 37Z" fill="#5F24DD"/>
<path d="M61 38H59V37C59 36.2044 58.6839 35.4413 58.1213 34.8787C57.5587 34.3161 56.7956 34 56 34H38C37.2044 34 36.4413 34.3161 35.8787 34.8787C35.3161 35.4413 35 36.2044 35 37V49C35 49.7956 35.3161 50.5587 35.8787 51.1213C36.4413 51.6839 37.2044 52 38 52H52V53C52 53.7956 52.3161 54.5587 52.8787 55.1213C53.4413 55.6839 54.2044 56 55 56H61C61.7956 56 62.5587 55.6839 63.1213 55.1213C63.6839 54.5587 64 53.7956 64 53V41C64 40.2044 63.6839 39.4413 63.1213 38.8787C62.5587 38.3161 61.7956 38 61 38ZM38 50C37.7348 50 37.4804 49.8946 37.2929 49.7071C37.1054 49.5196 37 49.2652 37 49V37C37 36.7348 37.1054 36.4804 37.2929 36.2929C37.4804 36.1054 37.7348 36 38 36H56C56.2652 36 56.5196 36.1054 56.7071 36.2929C56.8946 36.4804 57 36.7348 57 37V38H55C54.2044 38 53.4413 38.3161 52.8787 38.8787C52.3161 39.4413 52 40.2044 52 41V50H38ZM62 53C62 53.2652 61.8946 53.5196 61.7071 53.7071C61.5196 53.8946 61.2652 54 61 54H55C54.7348 54 54.4804 53.8946 54.2929 53.7071C54.1054 53.5196 54 53.2652 54 53V41C54 40.7348 54.1054 40.4804 54.2929 40.2929C54.4804 40.1054 54.7348 40 55 40H61C61.2652 40 61.5196 40.1054 61.7071 40.2929C61.8946 40.4804 62 40.7348 62 41V53ZM50 55C50 55.2652 49.8946 55.5196 49.7071 55.7071C49.5196 55.8946 49.2652 56 49 56H44C43.7348 56 43.4804 55.8946 43.2929 55.7071C43.1054 55.5196 43 55.2652 43 55C43 54.7348 43.1054 54.4804 43.2929 54.2929C43.4804 54.1054 43.7348 54 44 54H49C49.2652 54 49.5196 54.1054 49.7071 54.2929C49.8946 54.4804 50 54.7348 50 55ZM60 43C60 43.2652 59.8946 43.5196 59.7071 43.7071C59.5196 43.8946 59.2652 44 59 44H57C56.7348 44 56.4804 43.8946 56.2929 43.7071C56.1054 43.5196 56 43.2652 56 43C56 42.7348 56.1054 42.4804 56.2929 42.2929C56.4804 42.1054 56.7348 42 57 42H59C59.2652 42 59.5196 42.1054 59.7071 42.2929C59.8946 42.4804 60 42.7348 60 43Z" fill="#5F24DD"/>
<defs>
<filter id="filter0_d_300_320" x="0" y="0" width="98" height="98" filterUnits="userSpaceOnUse" color-interpolation-filters="sRGB">
<feFlood flood-opacity="0" result="BackgroundImageFix"/>
<feColorMatrix in="SourceAlpha" type="matrix" values="0 0 0 0 0 0 0 0 0 0 0 0 0 0 0 0 0 0 127 0" result="hardAlpha"/>
<feOffset dy="4"/>
<feGaussianBlur stdDeviation="10"/>
<feColorMatrix type="matrix" values="0 0 0 0 0.619608 0 0 0 0 0.533333 0 0 0 0 0.992157 0 0 0 0.6 0"/>
<feBlend mode="normal" in2="BackgroundImageFix" result="effect1_dropShadow_300_320"/>
<feBlend mode="normal" in="SourceGraphic" in2="effect1_dropShadow_300_320" result="shape"/>
</filter>
</defs>
</svg>
