<svg width="98" height="98" viewBox="0 0 98 98" fill="none" xmlns="http://www.w3.org/2000/svg">
<g filter="url(#filter0_d_300_325)">
<circle cx="49" cy="45" r="29" fill="white" fill-opacity="0.8"/>
<circle cx="49" cy="45" r="28.5" stroke="#5F24DD"/>
</g>
<path opacity="0.2" d="M61 45.0001C61.0018 46.683 60.6487 48.3474 59.9638 49.8846C59.2789 51.4218 58.2775 52.7973 57.025 53.9214C56.272 52.4402 55.1237 51.1965 53.7072 50.3279C52.2908 49.4592 50.6616 48.9997 49 49.0001C49.9889 49.0001 50.9556 48.7069 51.7779 48.1575C52.6001 47.6081 53.241 46.8272 53.6194 45.9135C53.9978 44.9999 54.0969 43.9946 53.9039 43.0247C53.711 42.0548 53.2348 41.1638 52.5355 40.4646C51.8363 39.7653 50.9454 39.2891 49.9755 39.0962C49.0055 38.9033 48.0002 39.0023 47.0866 39.3807C46.173 39.7592 45.3921 40.4 44.8427 41.2223C44.2932 42.0445 44 43.0112 44 44.0001C44 45.3262 44.5268 46.598 45.4645 47.5356C46.4022 48.4733 47.6739 49.0001 49 49.0001C47.3384 48.9997 45.7092 49.4592 44.2928 50.3279C42.8763 51.1965 41.728 52.4402 40.975 53.9214C39.4878 52.5837 38.3586 50.8954 37.6901 49.0102C37.0215 47.1249 36.8349 45.1025 37.147 43.1267C37.4592 41.1509 38.2603 39.2845 39.4776 37.6972C40.6948 36.11 42.2895 34.8521 44.1166 34.0381C45.9438 33.2241 47.9454 32.8797 49.9396 33.0364C51.9337 33.193 53.8571 33.8456 55.5348 34.9349C57.2124 36.0242 58.5912 37.5155 59.5457 39.2734C60.5002 41.0313 61.0001 42.9998 61 45.0001Z" fill="#5F24DD"/>
<path d="M49 32C46.4288 32 43.9154 32.7624 41.7776 34.1909C39.6398 35.6194 37.9735 37.6497 36.9896 40.0251C36.0056 42.4006 35.7482 45.0144 36.2498 47.5362C36.7514 50.0579 37.9895 52.3743 39.8076 54.1924C41.6257 56.0105 43.9421 57.2486 46.4638 57.7502C48.9856 58.2518 51.5995 57.9944 53.9749 57.0104C56.3503 56.0265 58.3807 54.3603 59.8091 52.2224C61.2376 50.0846 62 47.5712 62 45C61.9964 41.5533 60.6256 38.2488 58.1884 35.8116C55.7512 33.3744 52.4467 32.0036 49 32ZM42.26 53.6875C42.9834 52.5561 43.98 51.625 45.1579 50.9801C46.3358 50.3351 47.6571 49.9971 49 49.9971C50.3429 49.9971 51.6642 50.3351 52.8421 50.9801C54.02 51.625 55.0166 52.5561 55.74 53.6875C53.8129 55.1862 51.4413 55.9999 49 55.9999C46.5587 55.9999 44.1871 55.1862 42.26 53.6875ZM45 44C45 43.2089 45.2346 42.4355 45.6741 41.7777C46.1137 41.1199 46.7384 40.6072 47.4693 40.3045C48.2002 40.0017 49.0044 39.9225 49.7804 40.0769C50.5563 40.2312 51.269 40.6122 51.8284 41.1716C52.3878 41.731 52.7688 42.4437 52.9231 43.2196C53.0775 43.9956 52.9983 44.7998 52.6955 45.5307C52.3928 46.2616 51.8801 46.8864 51.2223 47.3259C50.5645 47.7654 49.7911 48 49 48C47.9391 48 46.9217 47.5786 46.1716 46.8284C45.4214 46.0783 45 45.0609 45 44ZM57.22 52.3013C56.1047 50.6851 54.5365 49.4348 52.7125 48.7075C53.6923 47.9358 54.4072 46.878 54.7579 45.6811C55.1086 44.4843 55.0776 43.2079 54.6693 42.0294C54.2609 40.851 53.4955 39.8291 52.4794 39.1059C51.4634 38.3826 50.2472 37.994 49 37.994C47.7528 37.994 46.5366 38.3826 45.5206 39.1059C44.5045 39.8291 43.7391 40.851 43.3307 42.0294C42.9224 43.2079 42.8914 44.4843 43.2421 45.6811C43.5928 46.878 44.3077 47.9358 45.2875 48.7075C43.4635 49.4348 41.8953 50.6851 40.78 52.3013C39.3707 50.7165 38.4496 48.7581 38.1276 46.6619C37.8055 44.5657 38.0963 42.4211 38.9649 40.4864C39.8335 38.5516 41.2428 36.9092 43.0233 35.7569C44.8037 34.6046 46.8792 33.9916 49 33.9916C51.1208 33.9916 53.1963 34.6046 54.9768 35.7569C56.7572 36.9092 58.1665 38.5516 59.0351 40.4864C59.9037 42.4211 60.1945 44.5657 59.8724 46.6619C59.5504 48.7581 58.6293 50.7165 57.22 52.3013Z" fill="#5F24DD"/>
<defs>
<filter id="filter0_d_300_325" x="0" y="0" width="98" height="98" filterUnits="userSpaceOnUse" color-interpolation-filters="sRGB">
<feFlood flood-opacity="0" result="BackgroundImageFix"/>
<feColorMatrix in="SourceAlpha" type="matrix" values="0 0 0 0 0 0 0 0 0 0 0 0 0 0 0 0 0 0 127 0" result="hardAlpha"/>
<feOffset dy="4"/>
<feGaussianBlur stdDeviation="10"/>
<feColorMatrix type="matrix" values="0 0 0 0 0.619608 0 0 0 0 0.533333 0 0 0 0 0.992157 0 0 0 0.6 0"/>
<feBlend mode="normal" in2="BackgroundImageFix" result="effect1_dropShadow_300_325"/>
<feBlend mode="normal" in="SourceGraphic" in2="effect1_dropShadow_300_325" result="shape"/>
</filter>
</defs>
</svg>
