<svg width="98" height="98" viewBox="0 0 98 98" fill="none" xmlns="http://www.w3.org/2000/svg">
<g filter="url(#filter0_d_300_335)">
<circle cx="49" cy="45" r="29" fill="white" fill-opacity="0.8"/>
<circle cx="49" cy="45" r="28.5" stroke="#5F24DD"/>
</g>
<path opacity="0.2" d="M47 45C47 45.7911 46.7654 46.5645 46.3259 47.2223C45.8864 47.8801 45.2616 48.3928 44.5307 48.6955C43.7998 48.9983 42.9956 49.0775 42.2196 48.9231C41.4437 48.7688 40.731 48.3878 40.1716 47.8284C39.6122 47.269 39.2312 46.5563 39.0769 45.7804C38.9225 45.0044 39.0017 44.2002 39.3045 43.4693C39.6072 42.7384 40.1199 42.1136 40.7777 41.6741C41.4355 41.2346 42.2089 41 43 41C44.0609 41 45.0783 41.4214 45.8284 42.1716C46.5786 42.9217 47 43.9391 47 45Z" fill="#5F24DD"/>
<path d="M55 36H43C40.6131 36 38.3239 36.9482 36.636 38.636C34.9482 40.3239 34 42.6131 34 45C34 47.3869 34.9482 49.6761 36.636 51.364C38.3239 53.0518 40.6131 54 43 54H55C57.3869 54 59.6761 53.0518 61.364 51.364C63.0518 49.6761 64 47.3869 64 45C64 42.6131 63.0518 40.3239 61.364 38.636C59.6761 36.9482 57.3869 36 55 36ZM55 52H43C41.1435 52 39.363 51.2625 38.0503 49.9497C36.7375 48.637 36 46.8565 36 45C36 43.1435 36.7375 41.363 38.0503 40.0503C39.363 38.7375 41.1435 38 43 38H55C56.8565 38 58.637 38.7375 59.9497 40.0503C61.2625 41.363 62 43.1435 62 45C62 46.8565 61.2625 48.637 59.9497 49.9497C58.637 51.2625 56.8565 52 55 52ZM43 40C42.0111 40 41.0444 40.2932 40.2221 40.8427C39.3999 41.3921 38.759 42.173 38.3806 43.0866C38.0022 44.0002 37.9031 45.0055 38.0961 45.9755C38.289 46.9454 38.7652 47.8363 39.4645 48.5355C40.1637 49.2348 41.0546 49.711 42.0245 49.9039C42.9945 50.0969 43.9998 49.9978 44.9134 49.6194C45.827 49.241 46.6079 48.6001 47.1573 47.7779C47.7068 46.9556 48 45.9889 48 45C48 43.6739 47.4732 42.4021 46.5355 41.4645C45.5979 40.5268 44.3261 40 43 40ZM43 48C42.4067 48 41.8266 47.8241 41.3333 47.4944C40.8399 47.1648 40.4554 46.6962 40.2284 46.1481C40.0013 45.5999 39.9419 44.9967 40.0576 44.4147C40.1734 43.8328 40.4591 43.2982 40.8787 42.8787C41.2982 42.4591 41.8328 42.1734 42.4147 42.0576C42.9967 41.9419 43.5999 42.0013 44.1481 42.2284C44.6962 42.4554 45.1648 42.8399 45.4944 43.3333C45.8241 43.8266 46 44.4067 46 45C46 45.7956 45.6839 46.5587 45.1213 47.1213C44.5587 47.6839 43.7956 48 43 48Z" fill="#5F24DD"/>
<defs>
<filter id="filter0_d_300_335" x="0" y="0" width="98" height="98" filterUnits="userSpaceOnUse" color-interpolation-filters="sRGB">
<feFlood flood-opacity="0" result="BackgroundImageFix"/>
<feColorMatrix in="SourceAlpha" type="matrix" values="0 0 0 0 0 0 0 0 0 0 0 0 0 0 0 0 0 0 127 0" result="hardAlpha"/>
<feOffset dy="4"/>
<feGaussianBlur stdDeviation="10"/>
<feColorMatrix type="matrix" values="0 0 0 0 0.619608 0 0 0 0 0.533333 0 0 0 0 0.992157 0 0 0 0.6 0"/>
<feBlend mode="normal" in2="BackgroundImageFix" result="effect1_dropShadow_300_335"/>
<feBlend mode="normal" in="SourceGraphic" in2="effect1_dropShadow_300_335" result="shape"/>
</filter>
</defs>
</svg>
