<svg width="98" height="88" viewBox="0 0 98 88" fill="none" xmlns="http://www.w3.org/2000/svg">
<g filter="url(#filter0_d_300_330)">
<circle cx="49" cy="45" r="29" fill="white" fill-opacity="0.8"/>
<circle cx="49" cy="45" r="28.5" stroke="#5F24DD"/>
</g>
<path opacity="0.2" d="M61 36V51.2575L56.035 46.2925C55.8475 46.1051 55.5932 45.9998 55.3281 45.9998C55.063 45.9998 54.8088 46.1051 54.6213 46.2925L51.4137 49.5L45.2075 43.2925C45.1146 43.1995 45.0043 43.1258 44.8829 43.0754C44.7615 43.0251 44.6314 42.9992 44.5 42.9992C44.3686 42.9992 44.2385 43.0251 44.1171 43.0754C43.9957 43.1258 43.8854 43.1995 43.7925 43.2925L37 50.0863V36C37 35.7348 37.1054 35.4804 37.2929 35.2929C37.4804 35.1054 37.7348 35 38 35H60C60.2652 35 60.5196 35.1054 60.7071 35.2929C60.8946 35.4804 61 35.7348 61 36Z" fill="#5F24DD"/>
<path d="M60 34H38C37.4696 34 36.9609 34.2107 36.5858 34.5858C36.2107 34.9609 36 35.4696 36 36V54C36 54.5304 36.2107 55.0391 36.5858 55.4142C36.9609 55.7893 37.4696 56 38 56H60C60.5304 56 61.0391 55.7893 61.4142 55.4142C61.7893 55.0391 62 54.5304 62 54V36C62 35.4696 61.7893 34.9609 61.4142 34.5858C61.0391 34.2107 60.5304 34 60 34ZM60 36V48.8438L56.7412 45.5863C56.5555 45.4005 56.335 45.2531 56.0923 45.1526C55.8497 45.052 55.5896 45.0003 55.3269 45.0003C55.0642 45.0003 54.8041 45.052 54.5614 45.1526C54.3187 45.2531 54.0982 45.4005 53.9125 45.5863L51.4125 48.0863L45.9125 42.5863C45.5375 42.2115 45.029 42.0009 44.4987 42.0009C43.9685 42.0009 43.46 42.2115 43.085 42.5863L38 47.6712V36H60ZM38 50.5L44.5 44L54.5 54H38V50.5ZM60 54H57.3288L52.8288 49.5L55.3288 47L60 51.6725V54ZM51 41.5C51 41.2033 51.088 40.9133 51.2528 40.6666C51.4176 40.42 51.6519 40.2277 51.926 40.1142C52.2001 40.0006 52.5017 39.9709 52.7926 40.0288C53.0836 40.0867 53.3509 40.2296 53.5607 40.4393C53.7704 40.6491 53.9133 40.9164 53.9712 41.2074C54.0291 41.4983 53.9993 41.7999 53.8858 42.074C53.7723 42.3481 53.58 42.5824 53.3334 42.7472C53.0867 42.912 52.7967 43 52.5 43C52.1022 43 51.7206 42.842 51.4393 42.5607C51.158 42.2794 51 41.8978 51 41.5Z" fill="#5F24DD"/>
<defs>
<filter id="filter0_d_300_330" x="0" y="0" width="98" height="98" filterUnits="userSpaceOnUse" color-interpolation-filters="sRGB">
<feFlood flood-opacity="0" result="BackgroundImageFix"/>
<feColorMatrix in="SourceAlpha" type="matrix" values="0 0 0 0 0 0 0 0 0 0 0 0 0 0 0 0 0 0 127 0" result="hardAlpha"/>
<feOffset dy="4"/>
<feGaussianBlur stdDeviation="10"/>
<feColorMatrix type="matrix" values="0 0 0 0 0.619608 0 0 0 0 0.533333 0 0 0 0 0.992157 0 0 0 0.6 0"/>
<feBlend mode="normal" in2="BackgroundImageFix" result="effect1_dropShadow_300_330"/>
<feBlend mode="normal" in="SourceGraphic" in2="effect1_dropShadow_300_330" result="shape"/>
</filter>
</defs>
</svg>
