<svg width="98" height="85" viewBox="0 0 98 85" fill="none" xmlns="http://www.w3.org/2000/svg">
<g filter="url(#filter0_d_300_350)">
<circle cx="49" cy="45" r="29" fill="white" fill-opacity="0.8"/>
<circle cx="49" cy="45" r="28.5" stroke="#5F24DD"/>
</g>
<path opacity="0.2" d="M61 36V54C61 54.2652 60.8946 54.5196 60.7071 54.7071C60.5196 54.8946 60.2652 55 60 55H38C37.7348 55 37.4804 54.8946 37.2929 54.7071C37.1054 54.5196 37 54.2652 37 54V36C37 35.7348 37.1054 35.4804 37.2929 35.2929C37.4804 35.1054 37.7348 35 38 35H60C60.2652 35 60.5196 35.1054 60.7071 35.2929C60.8946 35.4804 61 35.7348 61 36Z" fill="#5F24DD"/>
<path d="M60 34H38C37.4696 34 36.9609 34.2107 36.5858 34.5858C36.2107 34.9609 36 35.4696 36 36V54C36 54.5304 36.2107 55.0391 36.5858 55.4142C36.9609 55.7893 37.4696 56 38 56H60C60.5304 56 61.0391 55.7893 61.4142 55.4142C61.7893 55.0391 62 54.5304 62 54V36C62 35.4696 61.7893 34.9609 61.4142 34.5858C61.0391 34.2107 60.5304 34 60 34ZM60 54H38V36H60V54ZM43 39.5C43 39.7967 42.912 40.0867 42.7472 40.3334C42.5824 40.58 42.3481 40.7723 42.074 40.8858C41.7999 40.9994 41.4983 41.0291 41.2074 40.9712C40.9164 40.9133 40.6491 40.7704 40.4393 40.5607C40.2296 40.3509 40.0867 40.0836 40.0288 39.7926C39.9709 39.5017 40.0006 39.2001 40.1142 38.926C40.2277 38.6519 40.42 38.4176 40.6666 38.2528C40.9133 38.088 41.2033 38 41.5 38C41.8978 38 42.2794 38.158 42.5607 38.4393C42.842 38.7206 43 39.1022 43 39.5ZM48 39.5C48 39.7967 47.912 40.0867 47.7472 40.3334C47.5824 40.58 47.3481 40.7723 47.074 40.8858C46.7999 40.9994 46.4983 41.0291 46.2074 40.9712C45.9164 40.9133 45.6491 40.7704 45.4393 40.5607C45.2296 40.3509 45.0867 40.0836 45.0288 39.7926C44.9709 39.5017 45.0006 39.2001 45.1142 38.926C45.2277 38.6519 45.42 38.4176 45.6666 38.2528C45.9133 38.088 46.2033 38 46.5 38C46.8978 38 47.2794 38.158 47.5607 38.4393C47.842 38.7206 48 39.1022 48 39.5Z" fill="#5F24DD"/>
<defs>
<filter id="filter0_d_300_350" x="0" y="0" width="98" height="98" filterUnits="userSpaceOnUse" color-interpolation-filters="sRGB">
<feFlood flood-opacity="0" result="BackgroundImageFix"/>
<feColorMatrix in="SourceAlpha" type="matrix" values="0 0 0 0 0 0 0 0 0 0 0 0 0 0 0 0 0 0 127 0" result="hardAlpha"/>
<feOffset dy="4"/>
<feGaussianBlur stdDeviation="10"/>
<feColorMatrix type="matrix" values="0 0 0 0 0.619608 0 0 0 0 0.533333 0 0 0 0 0.992157 0 0 0 0.6 0"/>
<feBlend mode="normal" in2="BackgroundImageFix" result="effect1_dropShadow_300_350"/>
<feBlend mode="normal" in="SourceGraphic" in2="effect1_dropShadow_300_350" result="shape"/>
</filter>
</defs>
</svg>
