<svg width="98" height="64" viewBox="0 0 98 64" fill="none" xmlns="http://www.w3.org/2000/svg">
<g filter="url(#filter0_d_300_340)">
<circle cx="49" cy="45" r="29" fill="white" fill-opacity="0.8"/>
<circle cx="49" cy="45" r="28.5" stroke="#5F24DD"/>
</g>
<path opacity="0.2" d="M62 49.5C62 51.4325 60.2088 53 58 53C55.7913 53 54 51.4325 54 49.5C54 47.5675 55.7913 46 58 46C60.2088 46 62 47.5675 62 49.5ZM37.3525 48H48.6475L43 36L37.3525 48Z" fill="#5F24DD"/>
<path d="M43.9051 35.5739C43.8243 35.4021 43.6963 35.2568 43.5361 35.155C43.3758 35.0533 43.1899 34.9993 43.0001 34.9993C42.8103 34.9993 42.6244 35.0533 42.4641 35.155C42.3038 35.2568 42.1758 35.4021 42.0951 35.5739L34.0951 52.5739C34.0392 52.6927 34.0073 52.8214 34.0011 52.9526C33.9949 53.0838 34.0147 53.2149 34.0592 53.3385C34.1491 53.588 34.3344 53.7916 34.5745 53.9045C34.8145 54.0174 35.0895 54.0303 35.3391 53.9404C35.5886 53.8505 35.7922 53.6651 35.9051 53.4251L37.9876 49.0001H48.0126L50.0951 53.4251C50.151 53.544 50.2297 53.6506 50.3269 53.739C50.424 53.8274 50.5376 53.8959 50.6611 53.9404C50.7847 53.9849 50.9158 54.0046 51.047 53.9985C51.1782 53.9923 51.3069 53.9604 51.4257 53.9045C51.5446 53.8486 51.6512 53.7698 51.7396 53.6727C51.8281 53.5756 51.8965 53.462 51.941 53.3385C51.9855 53.2149 52.0052 53.0838 51.9991 52.9526C51.9929 52.8214 51.961 52.6927 51.9051 52.5739L43.9051 35.5739ZM38.9288 47.0001L43.0001 38.3489L47.0713 47.0001H38.9288ZM58.0001 41.0001C56.4051 41.0001 55.1588 41.4339 54.2963 42.2901C54.1158 42.4784 54.0159 42.7297 54.018 42.9905C54.0202 43.2514 54.1241 43.5011 54.3078 43.6863C54.4914 43.8716 54.7402 43.9778 55.001 43.9822C55.2618 43.9867 55.514 43.889 55.7038 43.7101C56.1788 43.2389 56.9538 43.0001 58.0001 43.0001C59.6538 43.0001 61.0001 44.1251 61.0001 45.5001V45.9026C60.1127 45.3089 59.0678 44.9945 58.0001 45.0001C55.2426 45.0001 53.0001 47.0189 53.0001 49.5001C53.0001 51.9814 55.2426 54.0001 58.0001 54.0001C59.0682 54.0048 60.1132 53.6891 61.0001 53.0939C61.0125 53.3591 61.1298 53.6085 61.3261 53.7872C61.5225 53.966 61.7817 54.0594 62.047 54.047C62.3122 54.0345 62.5616 53.9173 62.7403 53.7209C62.9191 53.5246 63.0125 53.2653 63.0001 53.0001V45.5001C63.0001 43.0189 60.7576 41.0001 58.0001 41.0001ZM58.0001 52.0001C56.3463 52.0001 55.0001 50.8751 55.0001 49.5001C55.0001 48.1251 56.3463 47.0001 58.0001 47.0001C59.6538 47.0001 61.0001 48.1251 61.0001 49.5001C61.0001 50.8751 59.6538 52.0001 58.0001 52.0001Z" fill="#5F24DD"/>
<defs>
<filter id="filter0_d_300_340" x="0" y="0" width="98" height="98" filterUnits="userSpaceOnUse" color-interpolation-filters="sRGB">
<feFlood flood-opacity="0" result="BackgroundImageFix"/>
<feColorMatrix in="SourceAlpha" type="matrix" values="0 0 0 0 0 0 0 0 0 0 0 0 0 0 0 0 0 0 127 0" result="hardAlpha"/>
<feOffset dy="4"/>
<feGaussianBlur stdDeviation="10"/>
<feColorMatrix type="matrix" values="0 0 0 0 0.619608 0 0 0 0 0.533333 0 0 0 0 0.992157 0 0 0 0.6 0"/>
<feBlend mode="normal" in2="BackgroundImageFix" result="effect1_dropShadow_300_340"/>
<feBlend mode="normal" in="SourceGraphic" in2="effect1_dropShadow_300_340" result="shape"/>
</filter>
</defs>
</svg>
