<svg width="42" height="42" viewBox="0 0 42 42" fill="none" xmlns="http://www.w3.org/2000/svg">
<g clip-path="url(#clip0_522_356)">
<path opacity="0.2" d="M2.625 24.9375H7.875V34.125H2.625C2.2769 34.125 1.94306 33.9867 1.69692 33.7406C1.45078 33.4944 1.3125 33.1606 1.3125 32.8125V26.25C1.3125 25.9019 1.45078 25.568 1.69692 25.3219C1.94306 25.0758 2.2769 24.9375 2.625 24.9375ZM33.4688 9.18748C32.7877 9.1879 32.1152 9.33977 31.5 9.63209C31.4553 8.64684 31.0948 7.70213 30.4716 6.93767C29.8485 6.17322 28.9958 5.62961 28.0398 5.38726C27.0838 5.1449 26.0751 5.21666 25.1631 5.59193C24.251 5.9672 23.4839 6.62605 22.9753 7.47103C22.4666 8.31601 22.2434 9.30226 22.3387 10.2839C22.434 11.2656 22.8426 12.1905 23.5043 12.9219C24.1659 13.6533 25.0454 14.1523 26.0126 14.3452C26.9798 14.5381 27.9834 14.4145 28.875 13.9929C28.9164 14.8913 29.2207 15.7577 29.7499 16.4848C30.2792 17.2119 31.0103 17.7676 31.8525 18.0831C32.6947 18.3986 33.611 18.4599 34.4877 18.2594C35.3644 18.059 36.163 17.6056 36.7844 16.9556C37.4059 16.3055 37.8229 15.4873 37.9836 14.6024C38.1444 13.7176 38.0419 12.805 37.6888 11.9779C37.3358 11.1507 36.7477 10.4454 35.9975 9.94938C35.2474 9.45335 34.3681 9.18844 33.4688 9.18748Z" fill="white"/>
<path d="M37.7885 23.1427C37.3001 22.7669 36.7316 22.5088 36.1273 22.3884C35.5229 22.2681 34.8989 22.2887 34.3038 22.4487L27.4395 24.027C27.5992 23.3523 27.6041 22.6503 27.4539 21.9735C27.3037 21.2967 27.0022 20.6626 26.5721 20.1189C26.142 19.5751 25.5944 19.1358 24.9704 18.8338C24.3463 18.5318 23.662 18.3749 22.9688 18.375H14.7558C14.0661 18.3733 13.3828 18.5082 12.7456 18.7721C12.1083 19.036 11.5297 19.4235 11.043 19.9123L7.33195 23.625H2.625C1.92881 23.625 1.26113 23.9016 0.768845 24.3938C0.276562 24.8861 0 25.5538 0 26.25L0 32.8125C0 33.5087 0.276562 34.1764 0.768845 34.6687C1.26113 35.1609 1.92881 35.4375 2.625 35.4375H19.6875C19.7948 35.4376 19.9017 35.4243 20.0058 35.3981L30.5058 32.7731C30.5727 32.7572 30.6381 32.7352 30.701 32.7075L37.0781 29.9939L37.1503 29.9611C37.7632 29.6548 38.288 29.1976 38.6754 28.6325C39.0627 28.0673 39.2998 27.4129 39.3643 26.7307C39.4288 26.0486 39.3186 25.3614 39.044 24.7336C38.7695 24.1059 38.3397 23.5584 37.7951 23.1427H37.7885ZM2.625 26.25H6.5625V32.8125H2.625V26.25ZM36.0002 27.597L29.7659 30.2515L19.5234 32.8125H9.1875V25.4805L12.9002 21.7695C13.1431 21.5246 13.4322 21.3305 13.7508 21.1985C14.0693 21.0664 14.4109 20.9989 14.7558 21H22.9688C23.4909 21 23.9917 21.2074 24.3609 21.5766C24.7301 21.9458 24.9375 22.4466 24.9375 22.9688C24.9375 23.4909 24.7301 23.9917 24.3609 24.3609C23.9917 24.7301 23.4909 24.9375 22.9688 24.9375H18.375C18.0269 24.9375 17.6931 25.0758 17.4469 25.3219C17.2008 25.5681 17.0625 25.9019 17.0625 26.25C17.0625 26.5981 17.2008 26.9319 17.4469 27.1781C17.6931 27.4242 18.0269 27.5625 18.375 27.5625H23.625C23.7238 27.5622 23.8223 27.5512 23.9187 27.5297L34.9109 25.0015L34.9617 24.9884C35.2973 24.8952 35.6554 24.9294 35.9673 25.0845C36.2791 25.2395 36.5226 25.5044 36.6509 25.8281C36.7791 26.1519 36.7832 26.5117 36.6621 26.8382C36.5411 27.1647 36.3036 27.435 35.9953 27.597H36.0002ZM26.9062 15.75C27.2305 15.7504 27.5543 15.724 27.8742 15.6713C28.2341 16.7402 28.8925 17.6837 29.7716 18.3903C30.6508 19.0969 31.7138 19.537 32.8352 19.6586C33.9565 19.7802 35.0892 19.5781 36.0993 19.0763C37.1094 18.5746 37.9548 17.7941 38.5354 16.8271C39.116 15.8601 39.4076 14.7471 39.3756 13.6196C39.3437 12.4922 38.9897 11.3975 38.3553 10.4649C37.7209 9.5323 36.8328 8.80084 35.7959 8.35701C34.759 7.91317 33.6167 7.77552 32.5041 7.96032C32.1575 6.93041 31.5336 6.01605 30.7009 5.31789C29.8683 4.61972 28.8591 4.1648 27.7846 4.00319C26.71 3.84158 25.6117 3.97954 24.6105 4.4019C23.6093 4.82426 22.744 5.51464 22.1099 6.39707C21.4758 7.27949 21.0974 8.31975 21.0164 9.40337C20.9353 10.487 21.1548 11.5719 21.6507 12.5389C22.1465 13.5058 22.8995 14.3172 23.8268 14.8837C24.754 15.4503 25.8196 15.75 26.9062 15.75ZM36.75 13.7813C36.75 14.4302 36.5576 15.0646 36.197 15.6042C35.8365 16.1438 35.324 16.5644 34.7244 16.8127C34.1249 17.0611 33.4651 17.1261 32.8286 16.9995C32.1921 16.8728 31.6074 16.5603 31.1486 16.1014C30.6897 15.6426 30.3772 15.0579 30.2505 14.4214C30.1239 13.7849 30.1889 13.1251 30.4373 12.5256C30.6856 11.926 31.1062 11.4135 31.6458 11.053C32.1854 10.6924 32.8198 10.5 33.4688 10.5C34.339 10.5 35.1736 10.8457 35.7889 11.4611C36.4043 12.0764 36.75 12.911 36.75 13.7813ZM26.9062 6.5625C27.6221 6.56286 28.3181 6.79729 28.8883 7.23004C29.4585 7.66279 29.8715 8.27013 30.0645 8.95946C29.3922 9.43244 28.8261 10.0405 28.4024 10.7448C27.9786 11.4491 27.7065 12.2341 27.6035 13.0495C27.3744 13.099 27.1407 13.1243 26.9062 13.125C26.036 13.125 25.2014 12.7793 24.5861 12.1639C23.9707 11.5486 23.625 10.714 23.625 9.84375C23.625 8.97351 23.9707 8.13891 24.5861 7.52356C25.2014 6.9082 26.036 6.5625 26.9062 6.5625Z" fill="white"/>
</g>
<defs>
<clipPath id="clip0_522_356">
<rect width="42" height="42" fill="white"/>
</clipPath>
</defs>
</svg>
