<svg xmlns="http://www.w3.org/2000/svg" width="36" height="32" viewBox="0 0 36 32" fill="none">
<path d="M35.6875 19.9375C35.6875 20.2856 35.5492 20.6194 35.3031 20.8656C35.057 21.1117 34.7231 21.25 34.375 21.25H31.75V23.875C31.75 24.2231 31.6117 24.5569 31.3656 24.8031C31.1195 25.0492 30.7856 25.1875 30.4375 25.1875C30.0894 25.1875 29.7556 25.0492 29.5094 24.8031C29.2633 24.5569 29.125 24.2231 29.125 23.875V21.25H26.5C26.1519 21.25 25.8181 21.1117 25.5719 20.8656C25.3258 20.6194 25.1875 20.2856 25.1875 19.9375C25.1875 19.5894 25.3258 19.2556 25.5719 19.0094C25.8181 18.7633 26.1519 18.625 26.5 18.625H29.125V16C29.125 15.6519 29.2633 15.3181 29.5094 15.0719C29.7556 14.8258 30.0894 14.6875 30.4375 14.6875C30.7856 14.6875 31.1195 14.8258 31.3656 15.0719C31.6117 15.3181 31.75 15.6519 31.75 16V18.625H34.375C34.7231 18.625 35.057 18.7633 35.3031 19.0094C35.5492 19.2556 35.6875 19.5894 35.6875 19.9375ZM4.18752 6.8125H6.81252V9.4375C6.81252 9.7856 6.9508 10.1194 7.19695 10.3656C7.44309 10.6117 7.77693 10.75 8.12502 10.75C8.47312 10.75 8.80696 10.6117 9.0531 10.3656C9.29924 10.1194 9.43752 9.7856 9.43752 9.4375V6.8125H12.0625C12.4106 6.8125 12.7445 6.67422 12.9906 6.42808C13.2367 6.18194 13.375 5.8481 13.375 5.5C13.375 5.1519 13.2367 4.81806 12.9906 4.57192C12.7445 4.32578 12.4106 4.1875 12.0625 4.1875H9.43752V1.5625C9.43752 1.2144 9.29924 0.880564 9.0531 0.634423C8.80696 0.388281 8.47312 0.25 8.12502 0.25C7.77693 0.25 7.44309 0.388281 7.19695 0.634423C6.9508 0.880564 6.81252 1.2144 6.81252 1.5625V4.1875H4.18752C3.83943 4.1875 3.50559 4.32578 3.25945 4.57192C3.0133 4.81806 2.87502 5.1519 2.87502 5.5C2.87502 5.8481 3.0133 6.18194 3.25945 6.42808C3.50559 6.67422 3.83943 6.8125 4.18752 6.8125ZM25.1875 26.5H23.875V25.1875C23.875 24.8394 23.7367 24.5056 23.4906 24.2594C23.2445 24.0133 22.9106 23.875 22.5625 23.875C22.2144 23.875 21.8806 24.0133 21.6344 24.2594C21.3883 24.5056 21.25 24.8394 21.25 25.1875V26.5H19.9375C19.5894 26.5 19.2556 26.6383 19.0094 26.8844C18.7633 27.1306 18.625 27.4644 18.625 27.8125C18.625 28.1606 18.7633 28.4944 19.0094 28.7406C19.2556 28.9867 19.5894 29.125 19.9375 29.125H21.25V30.4375C21.25 30.7856 21.3883 31.1194 21.6344 31.3656C21.8806 31.6117 22.2144 31.75 22.5625 31.75C22.9106 31.75 23.2445 31.6117 23.4906 31.3656C23.7367 31.1194 23.875 30.7856 23.875 30.4375V29.125H25.1875C25.5356 29.125 25.8695 28.9867 26.1156 28.7406C26.3617 28.4944 26.5 28.1606 26.5 27.8125C26.5 27.4644 26.3617 27.1306 26.1156 26.8844C25.8695 26.6383 25.5356 26.5 25.1875 26.5ZM30.9806 8.125L8.12502 30.9805C7.63279 31.4725 6.96537 31.7488 6.26948 31.7488C5.57358 31.7488 4.90616 31.4725 4.41393 30.9805L1.01784 27.5877C0.774019 27.344 0.580609 27.0546 0.448653 26.736C0.316697 26.4175 0.248779 26.0761 0.248779 25.7314C0.248779 25.3866 0.316697 25.0452 0.448653 24.7267C0.580609 24.4082 0.774019 24.1188 1.01784 23.875L23.875 1.01945C24.1188 0.775636 24.4082 0.582226 24.7267 0.45027C25.0452 0.318314 25.3866 0.250397 25.7314 0.250397C26.0762 0.250397 26.4176 0.318314 26.7361 0.45027C27.0546 0.582226 27.344 0.775636 27.5878 1.01945L30.9806 4.41227C31.2244 4.65603 31.4178 4.94543 31.5498 5.26395C31.6817 5.58247 31.7496 5.92386 31.7496 6.26863C31.7496 6.6134 31.6817 6.9548 31.5498 7.27331C31.4178 7.59183 31.2244 7.88124 30.9806 8.125ZM22.0178 13.375L18.625 9.98055L2.87502 25.7305L6.26784 29.125L22.0178 13.375ZM29.125 6.26945L25.7306 2.875L20.4806 8.125L23.875 11.5195L29.125 6.26945Z" fill="#270E67"/>
</svg>