<svg xmlns="http://www.w3.org/2000/svg" width="38" height="38" viewBox="0 0 38 38" fill="none">
<path d="M37.2716 9.50074C37.1411 9.0935 36.8926 8.7342 36.5575 8.4684C36.2225 8.2026 35.8161 8.04228 35.3898 8.00778L29.2834 7.49098L26.9012 1.93746C26.7331 1.54813 26.4547 1.21653 26.1003 0.983568C25.746 0.750604 25.3312 0.626465 24.9071 0.626465C24.483 0.626465 24.0682 0.750604 23.7138 0.983568C23.3594 1.21653 23.081 1.54813 22.9129 1.93746L20.5307 7.49262L14.4227 8.00778C13.9985 8.04184 13.594 8.20075 13.2601 8.46446C12.9261 8.72817 12.6778 9.08486 12.5463 9.48955C12.4149 9.89423 12.4063 10.3288 12.5215 10.7384C12.6367 11.148 12.8707 11.5143 13.1938 11.7911L17.8138 15.7286L16.4308 21.5905C16.3335 22.0014 16.3595 22.4318 16.5054 22.828C16.6513 23.2243 16.9106 23.5688 17.2511 23.8185C17.5956 24.0715 18.007 24.2173 18.4339 24.2377C18.8608 24.2581 19.2843 24.1523 19.6513 23.9333L24.9013 20.8161L30.1513 23.9333C30.5184 24.1523 30.9418 24.2581 31.3688 24.2377C31.7957 24.2173 32.2071 24.0715 32.5516 23.8185C32.8922 23.5689 33.1517 23.2244 33.2976 22.8282C33.4435 22.4319 33.4693 22.0014 33.3719 21.5905L31.9888 15.7286L36.6072 11.7911C36.9322 11.518 37.1689 11.1545 37.2872 10.7468C37.4055 10.3391 37.4 9.9054 37.2716 9.50074ZM30.0759 13.9304C29.7736 14.1866 29.5482 14.5215 29.4248 14.898C29.3014 15.2745 29.2849 15.6779 29.3769 16.0632L30.5762 21.1492L26.0186 18.4405C25.6822 18.24 25.2979 18.1341 24.9062 18.1341C24.5146 18.1341 24.1303 18.24 23.7939 18.4405L19.2362 21.1328L20.4355 16.0468C20.529 15.6617 20.5132 15.2581 20.3901 14.8813C20.2669 14.5046 20.0412 14.1696 19.7383 13.914L15.7581 10.5311L21.0229 10.0848C21.4136 10.052 21.7881 9.91345 22.106 9.68395C22.424 9.45445 22.6734 9.1427 22.8276 8.78215L24.9062 3.94559L26.98 8.78215C27.1345 9.14249 27.384 9.45405 27.7019 9.6835C28.0198 9.91296 28.394 10.0517 28.7847 10.0848L34.0494 10.5311L30.0759 13.9304ZM12.0536 18.6161L2.86609 27.8036C2.61981 28.0498 2.28579 28.1882 1.9375 28.1882C1.58921 28.1882 1.25518 28.0498 1.0089 27.8036C0.762625 27.5573 0.624268 27.2233 0.624268 26.875C0.624268 26.5267 0.762625 26.1926 1.0089 25.9464L10.1964 16.7589C10.4427 16.5126 10.7767 16.3742 11.125 16.3742C11.4733 16.3742 11.8073 16.5126 12.0536 16.7589C12.2999 17.0051 12.4382 17.3392 12.4382 17.6875C12.4382 18.0358 12.2999 18.3698 12.0536 18.6161ZM14.6786 27.8036L5.49109 36.9911C5.36915 37.113 5.22438 37.2097 5.06505 37.2757C4.90572 37.3417 4.73495 37.3757 4.5625 37.3757C4.39004 37.3757 4.21927 37.3417 4.05995 37.2757C3.90062 37.2097 3.75585 37.113 3.6339 36.9911C3.51196 36.8691 3.41523 36.7243 3.34923 36.565C3.28324 36.4057 3.24927 36.2349 3.24927 36.0625C3.24927 35.89 3.28324 35.7192 3.34923 35.5599C3.41523 35.4006 3.51196 35.2558 3.6339 35.1339L12.8214 25.9464C13.0677 25.7001 13.4017 25.5617 13.75 25.5617C14.0983 25.5617 14.4323 25.7001 14.6786 25.9464C14.9249 26.1926 15.0632 26.5267 15.0632 26.875C15.0632 27.2233 14.9249 27.5573 14.6786 27.8036ZM26.4911 25.9464C26.6131 26.0683 26.7099 26.213 26.776 26.3724C26.842 26.5317 26.876 26.7025 26.876 26.875C26.876 27.0474 26.842 27.2182 26.776 27.3776C26.7099 27.5369 26.6131 27.6817 26.4911 27.8036L17.3036 36.9911C17.1816 37.113 17.0369 37.2097 16.8775 37.2757C16.7182 37.3417 16.5475 37.3757 16.375 37.3757C16.2025 37.3757 16.0318 37.3417 15.8724 37.2757C15.7131 37.2097 15.5683 37.113 15.4464 36.9911C15.3245 36.8691 15.2277 36.7243 15.1617 36.565C15.0957 36.4057 15.0618 36.2349 15.0618 36.0625C15.0618 35.89 15.0957 35.7192 15.1617 35.5599C15.2277 35.4006 15.3245 35.2558 15.4464 35.1339L24.6339 25.9464C24.7558 25.8243 24.9006 25.7275 25.0599 25.6615C25.2192 25.5954 25.39 25.5614 25.5625 25.5614C25.735 25.5614 25.9058 25.5954 26.0651 25.6615C26.2244 25.7275 26.3692 25.8243 26.4911 25.9464Z" fill="#270E67"/>
</svg>